{"glyphs":{"0":{"ha":800,"x_min":69,"x_max":732,"o":"m 160 486 q 224 169 160 283 q 401 54 288 54 q 581 165 519 54 q 642 489 642 275 q 579 811 642 700 q 399 922 517 922 q 223 807 287 922 q 160 486 160 691 m 399 -26 q 158 111 246 -26 q 69 488 69 248 q 158 866 69 728 q 401 1003 246 1003 q 644 866 556 1003 q 732 488 732 730 q 644 109 732 243 q 399 -26 556 -26 z "},"1":{"ha":800,"x_min":191,"x_max":457,"o":"m 370 0 l 370 903 l 191 903 l 233 983 l 457 983 l 457 0 l 370 0 z "},"2":{"ha":800,"x_min":49,"x_max":690,"o":"m 686 78 l 686 0 l 49 0 l 262 235 q 328 306 285 260 q 593 721 593 594 q 532 866 593 810 q 374 922 471 922 q 216 860 274 922 q 158 688 158 797 l 69 688 l 69 697 q 154 921 69 839 q 383 1003 238 1003 q 607 927 523 1003 q 690 726 690 852 q 456 318 690 568 l 450 311 l 232 78 l 686 78 z "},"3":{"ha":800,"x_min":66,"x_max":696,"o":"m 164 250 q 225 104 170 154 q 380 54 280 54 q 543 110 484 54 q 602 264 602 165 q 542 420 602 363 q 378 476 483 476 q 354 476 362 476 q 340 475 347 475 l 340 561 q 368 559 359 559 q 385 558 378 558 q 533 606 479 558 q 586 737 586 653 q 533 872 586 821 q 392 924 479 924 q 263 882 312 924 q 204 764 214 840 l 107 764 q 195 939 119 875 q 392 1003 271 1003 q 600 932 520 1003 q 679 746 679 861 q 634 601 679 661 q 507 515 589 541 q 647 420 597 485 q 696 264 696 355 q 610 53 696 132 q 380 -26 525 -26 q 158 45 239 -26 q 66 250 77 117 l 164 250 z "},"4":{"ha":800,"x_min":41,"x_max":681,"o":"m 489 329 l 489 777 l 176 329 l 489 329 m 489 0 l 489 252 l 41 252 l 579 1017 l 579 329 l 681 329 l 681 252 l 579 252 l 579 0 l 489 0 z "},"5":{"ha":800,"x_min":56,"x_max":699,"o":"m 237 599 q 312 624 275 615 q 385 632 349 632 q 612 546 526 632 q 699 319 699 459 q 606 68 699 164 q 363 -28 513 -28 q 182 19 258 -28 q 56 163 106 66 l 126 215 q 228 93 170 132 q 367 54 286 54 q 541 125 476 54 q 606 314 606 195 q 539 489 606 425 q 359 554 473 554 q 245 536 296 554 q 154 482 193 518 l 126 485 l 253 983 l 654 983 l 654 907 l 315 907 l 237 599 z "},"6":{"ha":800,"x_min":83,"x_max":713,"o":"m 176 282 q 237 114 176 177 q 399 52 298 52 q 559 118 498 52 q 619 294 619 184 q 558 456 619 393 q 400 519 497 519 q 239 453 301 519 q 176 282 176 387 m 265 546 q 343 584 304 571 q 424 596 382 596 q 632 511 551 596 q 713 290 713 426 q 622 61 713 149 q 386 -28 530 -28 q 165 55 248 -28 q 83 277 83 138 q 119 443 83 358 q 278 699 155 527 l 510 1022 l 583 977 l 265 546 z "},"7":{"ha":800,"x_min":125,"x_max":734,"o":"m 151 12 l 604 907 l 125 907 l 125 983 l 734 983 l 235 -31 l 151 12 z "},"8":{"ha":800,"x_min":85,"x_max":715,"o":"m 400 54 q 563 112 503 54 q 623 271 623 170 q 563 431 623 372 q 400 490 503 490 q 238 432 297 490 q 179 271 179 373 q 238 112 179 170 q 400 54 296 54 m 403 571 q 538 618 488 571 q 587 746 587 665 q 537 876 587 827 q 401 924 486 924 q 267 876 317 924 q 216 746 216 827 q 267 618 216 665 q 403 571 317 571 m 279 534 q 163 618 205 559 q 122 760 122 677 q 200 935 122 866 q 401 1003 278 1003 q 604 933 528 1003 q 679 749 679 864 q 639 617 679 672 q 522 534 599 563 q 664 440 612 511 q 715 269 715 369 q 632 53 715 132 q 401 -26 548 -26 q 170 52 255 -26 q 85 267 85 131 q 136 439 85 368 q 279 534 188 511 z "},"9":{"ha":800,"x_min":83,"x_max":714,"o":"m 621 693 q 560 862 621 798 q 399 925 499 925 q 238 859 298 925 q 178 682 178 792 q 238 519 178 583 q 396 456 299 456 q 558 522 495 456 q 621 693 621 589 m 530 429 q 454 392 492 404 q 374 380 416 380 q 164 465 245 380 q 83 685 83 549 q 174 915 83 826 q 410 1003 265 1003 q 631 920 548 1003 q 714 699 714 837 q 674 523 714 614 q 518 277 633 432 l 281 -46 l 207 -1 l 530 429 z "},"Ď":{"ha":833,"x_min":69,"x_max":764,"o":"m 69 -245 l 69 979 l 764 979 l 764 -245 l 69 -245 m 147 -168 l 686 -168 l 686 901 l 147 901 l 147 -168 z "}," ":{"ha":400,"x_min":0,"x_max":0,"o":""},"!":{"ha":431,"x_min":146,"x_max":285,"o":"m 174 205 l 174 1015 l 257 1015 l 257 205 l 174 205 m 146 43 q 166 92 146 72 q 215 113 186 113 q 264 92 244 113 q 285 43 285 72 q 264 -6 285 14 q 215 -26 244 -26 q 166 -6 186 -26 q 146 43 146 14 z "},"\"":{"ha":374,"x_min":68,"x_max":306,"o":"m 306 972 l 306 597 l 248 597 l 248 972 l 306 972 m 126 972 l 126 597 l 68 597 l 68 972 l 126 972 z "},"#":{"ha":1068,"x_min":87,"x_max":981,"o":"m 664 587 l 481 587 l 414 396 l 596 396 l 664 587 m 621 986 l 503 648 l 686 648 l 806 986 l 880 986 l 762 648 l 981 648 l 960 587 l 741 587 l 672 396 l 908 396 l 888 335 l 650 335 l 532 0 l 456 0 l 575 335 l 392 335 l 271 0 l 196 0 l 314 335 l 87 335 l 109 396 l 336 396 l 404 587 l 160 587 l 179 648 l 427 648 l 546 986 l 621 986 z "},"$":{"ha":800,"x_min":109,"x_max":675,"o":"m 376 917 q 279 866 317 907 q 241 770 241 825 q 273 674 241 714 q 376 599 305 633 l 376 917 m 431 79 q 547 142 505 89 q 589 278 589 195 q 551 394 589 345 q 431 482 513 443 l 431 79 m 431 -114 l 376 -114 l 376 4 q 216 50 283 4 q 109 186 149 96 l 186 225 q 255 121 207 158 q 376 78 302 84 l 376 507 q 203 626 256 565 q 151 766 151 686 q 211 918 151 858 q 376 993 270 977 l 376 1061 l 431 1061 l 431 994 q 550 956 501 986 q 629 873 600 926 l 558 835 q 507 892 540 871 q 431 916 473 913 l 431 574 q 622 444 569 508 q 675 285 675 380 q 609 96 675 172 q 431 1 544 20 l 431 -114 z "},"%":{"ha":1015,"x_min":43,"x_max":974,"o":"m 656 228 q 686 85 656 134 q 774 36 716 36 q 862 86 831 36 q 893 228 893 136 q 863 370 893 321 q 774 418 833 418 q 686 369 716 418 q 656 228 656 320 m 974 227 q 921 40 974 106 q 774 -26 868 -26 q 627 40 680 -26 q 575 227 575 106 q 627 414 575 347 q 774 481 680 481 q 921 414 868 481 q 974 227 974 347 m 123 750 q 154 607 123 656 q 241 558 184 558 q 330 608 299 558 q 361 750 361 658 q 331 892 361 844 q 241 940 300 940 q 154 891 184 940 q 123 750 123 842 m 441 749 q 389 562 441 629 q 241 494 336 494 q 95 561 148 494 q 43 749 43 628 q 95 936 43 869 q 241 1003 148 1003 q 389 936 336 1003 q 441 749 441 869 m 183 -26 l 754 1003 l 828 1003 l 257 -26 l 183 -26 z "},"&":{"ha":889,"x_min":58,"x_max":875,"o":"m 607 204 l 347 521 l 302 489 q 174 370 203 416 q 144 262 144 323 q 205 115 144 175 q 354 54 267 54 q 476 92 413 54 q 607 204 538 129 m 374 615 l 418 646 q 496 722 471 682 q 522 806 522 762 q 487 887 522 854 q 400 920 452 920 q 308 888 344 920 q 272 806 272 856 q 284 749 272 779 q 318 690 296 720 l 374 615 m 777 0 l 653 146 q 508 22 582 62 q 350 -18 433 -18 q 140 60 222 -18 q 58 258 58 138 q 116 421 58 345 q 304 579 174 498 l 267 629 q 204 730 220 691 q 189 811 189 768 q 250 938 189 888 q 406 989 311 989 q 547 937 492 989 q 602 804 602 886 q 558 680 602 737 q 418 562 515 623 l 663 260 q 724 340 694 298 q 781 424 754 381 l 839 390 q 772 289 806 336 q 704 200 739 241 l 875 0 l 777 0 z "},"'":{"ha":193,"x_min":68,"x_max":126,"o":"m 126 972 l 126 597 l 68 597 l 68 972 l 126 972 z "},"(":{"ha":379,"x_min":125,"x_max":347,"o":"m 347 1006 q 239 701 275 859 q 203 374 203 544 q 239 28 203 187 q 347 -267 275 -130 l 286 -302 q 165 18 205 -152 q 125 376 125 188 q 165 728 125 563 q 286 1039 205 892 l 347 1006 z "},")":{"ha":379,"x_min":32,"x_max":254,"o":"m 32 1006 l 93 1039 q 214 728 174 892 q 254 376 254 563 q 214 18 254 188 q 93 -302 174 -152 l 32 -267 q 141 30 105 -129 q 178 374 178 189 q 141 700 178 542 q 32 1006 105 857 z "},"*":{"ha":579,"x_min":81,"x_max":498,"o":"m 110 629 l 81 682 l 239 765 l 81 852 l 110 905 l 264 807 l 260 993 l 319 993 l 314 807 l 469 904 l 498 852 l 340 765 l 498 682 l 467 629 l 313 724 l 318 543 l 260 543 l 265 722 l 110 629 z "},"+":{"ha":1157,"x_min":172,"x_max":985,"o":"m 606 828 l 606 441 l 985 441 l 985 386 l 606 386 l 606 0 l 551 0 l 551 386 l 172 386 l 172 441 l 551 441 l 551 828 l 606 828 z "},",":{"ha":400,"x_min":82,"x_max":318,"o":"m 220 172 l 318 131 l 139 -218 l 82 -192 l 220 172 z "},"-":{"ha":482,"x_min":93,"x_max":389,"o":"m 93 343 l 389 343 l 389 256 l 93 256 l 93 343 z "},".":{"ha":400,"x_min":131,"x_max":269,"o":"m 131 57 q 151 106 131 86 q 200 126 171 126 q 249 106 229 126 q 269 57 269 86 q 249 8 269 28 q 200 -12 229 -12 q 151 8 171 -12 q 131 57 131 28 z "},"/":{"ha":559,"x_min":0,"x_max":559,"o":"m 486 1015 l 559 1015 l 74 -129 l 0 -129 l 486 1015 z "},":":{"ha":431,"x_min":146,"x_max":285,"o":"m 146 57 q 166 106 146 86 q 215 126 186 126 q 264 106 244 126 q 285 57 285 86 q 264 8 285 28 q 215 -12 244 -12 q 166 8 186 -12 q 146 57 146 28 m 146 515 q 166 565 146 545 q 215 585 186 585 q 264 565 244 585 q 285 515 285 545 q 264 466 285 486 q 215 446 244 446 q 166 466 186 446 q 146 515 146 486 z "},";":{"ha":431,"x_min":87,"x_max":343,"o":"m 204 515 q 224 565 204 545 q 273 585 244 585 q 323 565 302 585 q 343 515 343 545 q 323 466 343 486 q 273 446 302 446 q 224 466 244 446 q 204 515 204 486 m 225 172 l 323 131 l 144 -218 l 87 -192 l 225 172 z "},"<":{"ha":1157,"x_min":179,"x_max":978,"o":"m 978 701 l 269 414 l 978 126 l 978 66 l 179 393 l 179 435 l 978 762 l 978 701 z "},"=":{"ha":1157,"x_min":172,"x_max":985,"o":"m 985 318 l 985 262 l 172 262 l 172 318 l 985 318 m 985 564 l 985 510 l 172 510 l 172 564 l 985 564 z "},">":{"ha":1157,"x_min":179,"x_max":978,"o":"m 978 435 l 978 393 l 179 66 l 179 126 l 888 414 l 179 701 l 179 762 l 978 435 z "},"?":{"ha":714,"x_min":117,"x_max":589,"o":"m 272 43 q 292 92 272 72 q 342 113 313 113 q 391 92 371 113 q 411 43 411 72 q 391 -6 411 14 q 342 -26 371 -26 q 292 -6 313 -26 q 272 43 272 14 m 197 743 l 117 743 l 117 765 q 182 948 117 882 q 363 1015 248 1015 q 527 954 466 1015 q 589 790 589 893 q 556 664 589 715 q 424 549 524 613 q 375 518 406 538 q 240 361 240 435 q 271 282 240 312 q 354 253 302 253 q 448 284 414 253 q 481 374 481 316 l 481 386 l 555 386 l 555 370 q 501 229 555 278 q 345 180 447 180 q 207 231 260 180 q 154 363 154 282 q 185 467 154 422 q 301 568 216 512 q 351 600 319 579 q 504 785 504 696 q 465 890 504 850 q 358 929 425 929 q 239 882 281 929 q 197 747 197 834 l 197 743 z "},"@":{"ha":1389,"x_min":82,"x_max":1307,"o":"m 884 561 l 925 648 l 979 648 l 886 273 q 876 230 880 249 q 872 200 872 210 q 893 154 872 170 q 951 138 913 138 q 1019 151 984 138 q 1089 189 1055 164 q 1199 330 1158 239 q 1240 521 1240 420 q 1105 819 1240 706 q 749 932 970 932 q 538 899 635 932 q 363 802 441 867 q 205 600 258 715 q 153 346 153 486 q 303 -8 153 124 q 704 -140 453 -140 q 924 -106 813 -140 q 1126 -9 1034 -72 l 1146 -40 q 937 -152 1047 -115 q 707 -189 827 -189 q 474 -158 580 -189 q 286 -64 368 -126 q 133 118 183 14 q 82 354 82 221 q 116 562 82 464 q 216 742 151 661 q 451 922 314 861 q 755 983 587 983 q 962 954 864 983 q 1131 869 1060 924 q 1262 716 1217 803 q 1307 528 1307 629 q 1264 319 1307 413 q 1141 161 1221 224 q 1043 105 1096 125 q 935 86 989 86 q 837 111 870 86 q 804 184 804 136 q 806 208 804 193 q 807 211 807 210 q 722 119 774 151 q 610 86 671 86 q 451 142 505 86 q 397 307 397 199 q 489 569 397 462 q 710 676 580 676 q 819 647 774 676 q 884 561 863 618 m 827 317 l 869 489 q 814 591 854 556 q 711 627 774 627 q 538 533 608 627 q 468 302 468 439 q 507 180 468 224 q 615 136 546 136 q 748 185 690 136 q 827 317 806 235 z "},"A":{"ha":829,"x_min":-12,"x_max":842,"o":"m 241 414 l 587 414 l 418 846 l 241 414 m -12 0 l 424 1032 l 842 0 l 743 0 l 616 336 l 211 336 l 79 0 l -12 0 z "},"B":{"ha":768,"x_min":123,"x_max":694,"o":"m 214 551 l 326 551 q 502 592 450 551 q 553 728 553 633 q 503 872 553 830 q 326 914 453 914 l 214 914 l 214 551 m 214 78 l 329 78 q 465 86 427 78 q 528 114 502 94 q 578 181 559 138 q 597 273 597 224 q 576 378 597 333 q 518 446 555 423 q 457 467 492 460 q 349 473 422 473 l 329 473 l 214 473 l 214 78 m 123 0 l 123 993 l 296 993 q 459 982 409 993 q 545 945 509 971 q 620 853 594 907 q 646 734 646 800 q 604 600 646 655 q 490 526 563 544 q 640 450 586 512 q 694 292 694 387 q 673 168 694 222 q 610 74 652 113 q 505 17 566 33 q 297 0 444 0 l 123 0 z "},"C":{"ha":993,"x_min":77,"x_max":922,"o":"m 921 811 q 770 905 847 875 q 607 936 692 936 q 294 814 414 936 q 174 496 174 692 q 203 319 174 397 q 293 179 233 240 q 430 88 353 119 q 595 57 507 57 q 762 86 680 57 q 916 172 843 115 l 916 66 q 761 -2 842 22 q 599 -26 679 -26 q 393 12 491 -26 q 224 121 294 51 q 114 288 151 193 q 77 496 77 382 q 115 703 77 607 q 225 869 153 800 q 394 977 295 938 q 599 1015 492 1015 q 775 989 694 1015 q 922 911 856 963 l 921 811 z "},"D":{"ha":968,"x_min":123,"x_max":890,"o":"m 214 78 l 340 78 q 559 95 494 78 q 668 154 623 113 q 762 299 730 212 q 794 497 794 386 q 762 698 794 611 q 667 840 730 785 q 551 901 619 883 q 311 918 482 918 l 294 918 l 214 918 l 214 78 m 123 0 l 123 993 l 278 993 q 572 972 485 993 q 721 903 659 952 q 847 733 804 837 q 890 496 890 629 q 847 258 890 362 q 722 92 804 154 q 575 21 658 42 q 309 0 492 0 l 278 0 l 123 0 z "},"E":{"ha":713,"x_min":123,"x_max":615,"o":"m 123 0 l 123 993 l 615 993 l 615 908 l 214 908 l 214 597 l 615 597 l 615 513 l 214 513 l 214 85 l 615 85 l 615 0 l 123 0 z "},"F":{"ha":696,"x_min":123,"x_max":615,"o":"m 123 0 l 123 993 l 615 993 l 615 908 l 214 908 l 214 597 l 600 597 l 600 513 l 214 513 l 214 0 l 123 0 z "},"G":{"ha":1135,"x_min":77,"x_max":1068,"o":"m 937 743 q 789 885 877 837 q 590 933 701 933 q 290 808 406 933 q 174 485 174 684 q 204 317 174 396 q 294 178 235 239 q 428 87 354 117 q 590 57 502 57 q 862 155 757 57 q 969 412 966 254 l 627 412 l 627 490 l 1068 490 l 1068 479 q 939 108 1068 242 q 582 -26 809 -26 q 216 117 356 -26 q 77 494 77 261 q 112 697 77 602 q 214 863 147 792 q 376 977 286 939 q 578 1015 467 1015 q 837 961 729 1015 q 1003 800 945 906 l 937 743 z "},"H":{"ha":968,"x_min":123,"x_max":844,"o":"m 123 0 l 123 993 l 214 993 l 214 590 l 754 590 l 754 993 l 844 993 l 844 0 l 754 0 l 754 513 l 214 513 l 214 0 l 123 0 z "},"I":{"ha":338,"x_min":123,"x_max":214,"o":"m 123 0 l 123 993 l 214 993 l 214 0 l 123 0 z "},"J":{"ha":518,"x_min":4,"x_max":407,"o":"m 317 272 l 317 993 l 407 993 l 407 214 q 353 35 407 96 q 196 -26 300 -26 q 84 0 133 -26 q 4 77 36 26 l 68 135 q 127 78 96 96 q 193 60 158 60 q 288 107 260 60 q 317 272 317 155 z "},"K":{"ha":798,"x_min":123,"x_max":803,"o":"m 123 0 l 123 993 l 214 993 l 214 528 l 663 993 l 781 993 l 310 518 l 803 0 l 672 0 l 214 504 l 214 0 l 123 0 z "},"L":{"ha":574,"x_min":123,"x_max":554,"o":"m 123 0 l 123 993 l 214 993 l 214 85 l 554 85 l 554 0 l 123 0 z "},"M":{"ha":1161,"x_min":60,"x_max":1097,"o":"m 576 -39 l 228 758 l 153 0 l 60 0 l 195 1035 l 575 151 l 970 1035 l 1097 0 l 1004 0 l 930 758 l 576 -39 z "},"N":{"ha":1035,"x_min":123,"x_max":911,"o":"m 123 0 l 123 1035 l 827 204 l 827 993 l 911 993 l 911 -29 l 208 803 l 208 0 l 123 0 z "},"O":{"ha":1215,"x_min":77,"x_max":1139,"o":"m 607 54 q 774 87 695 54 q 916 182 852 119 q 1010 325 977 245 q 1043 494 1043 406 q 1010 664 1043 584 q 916 807 978 743 q 775 902 854 869 q 607 935 696 935 q 441 902 519 935 q 300 807 363 869 q 205 664 237 743 q 172 494 172 585 q 205 325 172 405 q 300 182 237 245 q 439 86 362 119 q 607 54 517 54 m 1139 494 q 1099 295 1139 389 q 983 126 1059 200 q 810 13 907 52 q 607 -26 714 -26 q 404 13 500 -26 q 232 126 308 52 q 116 295 156 201 q 77 494 77 389 q 116 695 77 601 q 232 865 156 790 q 402 977 307 939 q 607 1015 498 1015 q 813 977 717 1015 q 983 865 909 939 q 1099 695 1059 790 q 1139 494 1139 601 z "},"P":{"ha":694,"x_min":123,"x_max":648,"o":"m 123 0 l 123 993 l 304 993 q 462 981 412 993 q 550 943 513 970 q 623 850 597 909 q 648 720 648 791 q 569 512 648 578 q 318 446 490 446 l 214 446 l 214 0 l 123 0 m 214 525 l 275 525 q 496 567 439 525 q 553 713 553 608 q 540 794 553 757 q 501 860 527 831 q 429 902 475 890 q 275 914 384 914 l 214 914 l 214 525 z "},"Q":{"ha":1215,"x_min":77,"x_max":1147,"o":"m 628 407 l 739 407 l 924 192 q 1013 333 983 256 q 1043 496 1043 409 q 1010 665 1043 585 q 916 807 977 745 q 774 903 854 869 q 607 936 694 936 q 441 903 520 936 q 300 807 363 870 q 206 665 238 744 q 174 496 174 586 q 206 326 174 406 q 300 184 238 247 q 441 90 363 122 q 610 57 520 57 q 747 78 682 57 q 859 139 812 100 l 628 407 m 1147 -69 l 1038 -69 l 917 71 q 767 2 845 24 q 599 -21 689 -21 q 399 17 494 -21 q 232 127 305 56 q 116 297 156 203 q 77 496 77 391 q 116 696 77 602 q 232 864 156 790 q 403 976 307 937 q 607 1015 499 1015 q 812 976 715 1015 q 983 864 909 937 q 1099 696 1059 790 q 1139 496 1139 602 q 1099 295 1139 387 q 979 126 1059 203 l 1147 -69 z "},"R":{"ha":733,"x_min":123,"x_max":726,"o":"m 214 914 l 214 547 l 304 547 q 480 588 431 547 q 530 725 530 628 q 479 871 530 827 q 304 914 427 914 l 214 914 m 726 0 l 616 0 l 268 473 l 214 473 l 214 0 l 123 0 l 123 993 l 306 993 q 548 926 467 993 q 628 722 628 859 q 559 540 628 606 q 370 473 490 473 l 726 0 z "},"S":{"ha":692,"x_min":47,"x_max":614,"o":"m 47 167 l 125 208 q 200 95 146 135 q 328 54 253 54 q 475 110 422 54 q 528 264 528 165 q 492 383 528 336 q 339 493 456 431 q 140 633 189 572 q 90 778 90 693 q 162 950 90 884 q 347 1017 233 1017 q 477 985 422 1017 q 567 890 532 954 l 497 848 q 436 913 475 891 q 342 936 396 936 q 225 893 269 936 q 182 777 182 850 q 354 582 182 672 q 401 557 385 566 q 571 425 528 487 q 614 264 614 363 q 536 52 614 130 q 323 -26 458 -26 q 156 22 226 -26 q 47 167 87 71 z "},"T":{"ha":690,"x_min":26,"x_max":664,"o":"m 300 0 l 300 908 l 26 908 l 26 993 l 664 993 l 664 908 l 390 908 l 390 0 l 300 0 z "},"U":{"ha":961,"x_min":119,"x_max":842,"o":"m 119 993 l 208 993 l 208 345 q 275 126 208 197 q 481 54 342 54 q 684 126 617 54 q 751 345 751 197 l 751 993 l 842 993 l 842 374 q 752 73 842 172 q 481 -26 663 -26 q 209 73 298 -26 q 119 374 119 172 l 119 993 z "},"V":{"ha":765,"x_min":-12,"x_max":778,"o":"m 376 -39 l -12 993 l 92 993 l 378 184 l 679 993 l 778 993 l 376 -39 z "},"W":{"ha":1247,"x_min":17,"x_max":1231,"o":"m 359 -39 l 17 993 l 111 993 l 359 200 l 624 1032 l 899 207 l 1137 993 l 1231 993 l 899 -39 l 624 804 l 359 -39 z "},"X":{"ha":672,"x_min":-17,"x_max":689,"o":"m 82 0 l -17 0 l 286 522 l 12 993 l 114 993 l 338 599 l 564 993 l 661 993 l 387 525 l 689 0 l 589 0 l 336 440 l 82 0 z "},"Y":{"ha":758,"x_min":7,"x_max":753,"o":"m 336 0 l 336 457 l 7 993 l 115 993 l 382 538 l 650 993 l 753 993 l 427 457 l 427 0 l 336 0 z "},"Z":{"ha":778,"x_min":17,"x_max":761,"o":"m 17 0 l 607 911 l 103 911 l 103 993 l 761 993 l 174 83 l 701 83 l 701 0 l 17 0 z "},"[":{"ha":379,"x_min":150,"x_max":347,"o":"m 150 1015 l 347 1015 l 347 949 l 229 949 l 229 -212 l 347 -212 l 347 -279 l 150 -279 l 150 1015 z "},"\\":{"ha":559,"x_min":0,"x_max":559,"o":"m 486 -129 l 0 1015 l 74 1015 l 559 -129 l 486 -129 z "},"]":{"ha":379,"x_min":32,"x_max":229,"o":"m 229 1015 l 229 -279 l 32 -279 l 32 -212 l 151 -212 l 151 949 l 32 949 l 32 1015 l 229 1015 z "},"^":{"ha":1389,"x_min":288,"x_max":1100,"o":"m 733 989 l 1100 611 l 1015 611 l 694 929 l 372 611 l 288 611 l 653 989 l 733 989 z "},"_":{"ha":694,"x_min":0,"x_max":694,"o":"m 694 -273 l 694 -328 l 0 -328 l 0 -273 l 694 -273 z "},"`":{"ha":694,"x_min":182,"x_max":437,"o":"m 437 699 l 374 699 l 182 936 l 293 936 l 437 699 z "},"a":{"ha":751,"x_min":57,"x_max":639,"o":"m 150 294 q 202 115 150 178 q 353 52 255 52 q 502 120 448 52 q 557 310 557 189 q 503 484 557 420 q 354 547 448 547 q 205 480 260 547 q 150 294 150 412 m 555 0 l 555 110 q 472 8 526 43 q 345 -26 418 -26 q 136 62 215 -26 q 57 297 57 151 q 135 533 57 441 q 336 624 213 624 q 469 590 413 624 q 555 492 525 557 l 555 602 l 639 602 l 639 0 l 555 0 z "},"b":{"ha":751,"x_min":111,"x_max":692,"o":"m 599 294 q 544 480 599 412 q 395 547 489 547 q 247 484 300 547 q 193 310 193 420 q 248 120 193 189 q 397 52 302 52 q 547 114 494 52 q 599 294 599 177 m 195 0 l 111 0 l 111 1051 l 195 1051 l 195 492 q 280 590 225 557 q 412 624 336 624 q 614 533 536 624 q 692 297 692 441 q 613 62 692 151 q 404 -26 534 -26 q 278 8 332 -26 q 195 110 224 43 l 195 0 z "},"c":{"ha":633,"x_min":62,"x_max":589,"o":"m 579 492 q 490 535 537 521 q 392 550 442 550 q 214 478 280 550 q 147 288 147 407 q 216 113 147 182 q 392 45 285 45 q 491 62 441 45 q 589 113 541 79 l 589 21 q 491 -17 545 -4 q 376 -29 437 -29 q 151 61 239 -29 q 62 293 62 152 q 154 532 62 440 q 393 624 246 624 q 495 613 448 624 q 581 583 543 603 l 579 492 z "},"d":{"ha":751,"x_min":60,"x_max":642,"o":"m 153 294 q 205 115 153 178 q 355 52 258 52 q 504 120 450 52 q 558 310 558 189 q 505 484 558 420 q 357 547 451 547 q 208 480 262 547 q 153 294 153 412 m 557 0 l 557 110 q 473 8 527 43 q 347 -26 420 -26 q 139 62 218 -26 q 60 297 60 151 q 138 533 60 441 q 339 624 216 624 q 471 590 416 624 q 557 492 526 557 l 557 1051 l 642 1051 l 642 0 l 557 0 z "},"e":{"ha":690,"x_min":60,"x_max":632,"o":"m 529 370 q 474 498 523 452 q 342 543 425 543 q 215 496 266 543 q 155 370 163 448 l 529 370 m 628 298 l 150 298 q 208 115 153 182 q 355 49 263 49 q 472 85 422 49 q 555 193 522 121 l 632 151 q 519 17 586 60 q 355 -26 452 -26 q 141 62 223 -26 q 60 294 60 151 q 141 533 60 442 q 353 624 222 624 q 553 540 477 624 q 628 317 628 456 l 628 298 z "},"f":{"ha":359,"x_min":18,"x_max":370,"o":"m 131 0 l 131 530 l 18 530 l 18 602 l 131 602 l 131 775 q 165 1010 131 956 q 289 1064 199 1064 q 332 1060 311 1064 q 370 1050 352 1057 l 354 977 q 322 989 338 985 q 294 993 307 993 q 232 958 250 993 q 214 829 214 923 l 214 602 l 346 602 l 346 530 l 214 530 l 214 0 l 131 0 z "},"g":{"ha":751,"x_min":61,"x_max":640,"o":"m 640 602 l 640 104 q 634 -77 640 -14 q 612 -170 627 -139 q 517 -270 581 -237 q 354 -302 452 -302 q 167 -256 234 -302 q 86 -115 100 -210 l 191 -115 q 244 -199 201 -171 q 361 -228 287 -228 q 461 -208 416 -228 q 528 -154 505 -189 q 549 -102 543 -132 q 555 -11 555 -73 l 555 21 l 555 111 q 470 10 528 47 q 339 -26 413 -26 q 137 62 212 -26 q 61 298 61 150 q 138 535 61 446 q 343 624 216 624 q 472 587 414 624 q 555 489 530 550 l 555 602 l 640 602 m 353 547 q 205 480 259 547 q 151 297 151 414 q 202 116 151 181 q 345 52 254 52 q 499 120 441 52 q 557 304 557 189 q 503 483 557 418 q 353 547 448 547 z "},"h":{"ha":724,"x_min":111,"x_max":619,"o":"m 111 0 l 111 1051 l 191 1051 l 191 509 q 280 595 227 566 q 403 624 334 624 q 562 567 505 624 q 619 408 619 510 l 619 0 l 534 0 l 534 371 q 497 505 534 461 q 380 549 459 549 q 240 492 285 549 q 195 314 195 435 l 195 0 l 111 0 z "},"i":{"ha":319,"x_min":96,"x_max":225,"o":"m 96 836 q 115 881 96 863 q 160 900 134 900 q 206 881 186 900 q 225 836 225 863 q 207 791 225 809 q 160 772 188 772 q 114 791 133 772 q 96 836 96 809 m 117 0 l 117 602 l 203 602 l 203 0 l 117 0 z "},"j":{"ha":319,"x_min":96,"x_max":225,"o":"m 96 836 q 115 881 96 863 q 160 900 134 900 q 206 881 186 900 q 225 836 225 863 q 207 791 225 809 q 160 772 188 772 q 114 791 133 772 q 96 836 96 809 m 117 -302 l 117 602 l 203 602 l 203 -302 l 117 -302 z "},"k":{"ha":636,"x_min":111,"x_max":633,"o":"m 111 0 l 111 1051 l 195 1051 l 195 335 l 494 602 l 610 602 l 288 332 l 633 0 l 518 0 l 195 311 l 195 0 l 111 0 z "},"l":{"ha":319,"x_min":117,"x_max":203,"o":"m 203 0 l 117 0 l 117 1051 l 203 1051 l 203 0 z "},"m":{"ha":1096,"x_min":111,"x_max":985,"o":"m 195 0 l 111 0 l 111 602 l 195 602 l 195 507 q 273 594 224 564 q 386 624 322 624 q 498 594 452 624 q 570 505 545 564 q 658 594 606 565 q 779 624 710 624 q 930 566 875 624 q 985 407 985 508 l 985 0 l 901 0 l 901 374 q 865 507 901 462 q 757 551 829 551 q 630 495 671 551 q 590 317 590 439 l 590 0 l 507 0 l 507 374 q 473 509 507 466 q 366 551 438 551 q 236 494 277 551 q 195 317 195 437 l 195 0 z "},"n":{"ha":724,"x_min":111,"x_max":619,"o":"m 111 0 l 111 602 l 191 602 l 191 509 q 280 595 227 566 q 403 624 334 624 q 562 567 505 624 q 619 408 619 510 l 619 0 l 534 0 l 534 371 q 497 505 534 461 q 380 549 459 549 q 240 492 285 549 q 195 314 195 435 l 195 0 l 111 0 z "},"o":{"ha":775,"x_min":61,"x_max":714,"o":"m 387 52 q 555 123 486 52 q 624 298 624 195 q 555 475 624 404 q 387 546 487 546 q 220 475 288 546 q 151 298 151 404 q 220 123 151 195 q 387 52 288 52 m 385 -26 q 261 -1 320 -26 q 154 72 202 24 q 85 175 109 117 q 61 300 61 233 q 85 425 61 366 q 155 529 110 484 q 260 600 201 575 q 385 624 319 624 q 511 600 451 624 q 618 529 571 575 q 689 424 665 483 q 714 300 714 365 q 690 176 714 235 q 619 72 665 117 q 511 -1 572 24 q 385 -26 450 -26 z "},"p":{"ha":751,"x_min":111,"x_max":689,"o":"m 599 297 q 546 480 599 414 q 399 547 492 547 q 248 483 302 547 q 193 304 193 418 q 252 120 193 189 q 407 52 311 52 q 548 116 498 52 q 599 297 599 181 m 111 -302 l 111 602 l 192 602 l 192 489 q 282 589 227 554 q 407 624 338 624 q 611 535 534 624 q 689 298 689 446 q 613 62 689 151 q 411 -26 537 -26 q 283 8 338 -26 q 192 111 227 43 l 192 -302 l 111 -302 z "},"q":{"ha":751,"x_min":61,"x_max":640,"o":"m 353 547 q 205 480 259 547 q 151 297 151 414 q 202 116 151 181 q 345 52 254 52 q 499 120 441 52 q 557 304 557 189 q 503 483 557 418 q 353 547 448 547 m 640 -302 l 559 -302 l 559 111 q 468 8 524 43 q 339 -26 412 -26 q 137 62 213 -26 q 61 298 61 151 q 138 535 61 446 q 343 624 216 624 q 469 589 413 624 q 559 489 526 553 l 559 602 l 640 602 l 640 -302 z "},"r":{"ha":437,"x_min":111,"x_max":460,"o":"m 195 481 q 285 591 241 559 q 389 624 330 624 q 424 621 406 624 q 460 611 442 617 l 433 532 q 405 539 419 536 q 376 542 390 542 q 248 471 301 542 q 195 296 195 401 l 195 0 l 111 0 l 111 602 l 195 602 l 195 481 z "},"s":{"ha":530,"x_min":43,"x_max":472,"o":"m 43 107 l 122 153 q 179 77 142 102 q 271 52 216 52 q 355 78 323 52 q 386 150 386 105 q 263 267 386 219 q 243 275 250 272 q 110 352 148 313 q 72 450 72 392 q 126 576 72 527 q 267 625 180 625 q 391 593 340 625 q 467 503 443 562 l 390 460 q 342 525 376 503 q 261 547 309 547 q 190 522 218 547 q 161 458 161 496 q 189 397 161 421 q 304 343 217 372 q 438 268 404 309 q 472 155 472 227 q 413 23 472 73 q 254 -26 354 -26 q 122 8 178 -26 q 43 107 67 43 z "},"t":{"ha":345,"x_min":18,"x_max":332,"o":"m 129 530 l 18 530 l 18 602 l 129 602 l 129 848 l 211 848 l 211 602 l 332 602 l 332 530 l 211 530 l 211 0 l 129 0 l 129 530 z "},"u":{"ha":732,"x_min":111,"x_max":621,"o":"m 195 602 l 195 301 q 234 108 195 164 q 366 52 273 52 q 498 109 458 52 q 538 301 538 165 l 538 602 l 621 602 l 621 258 q 556 46 621 118 q 367 -26 492 -26 q 176 46 241 -26 q 111 258 111 118 l 111 602 l 195 602 z "},"v":{"ha":593,"x_min":21,"x_max":574,"o":"m 21 602 l 113 602 l 297 146 l 481 602 l 574 602 l 297 -39 l 21 602 z "},"w":{"ha":900,"x_min":17,"x_max":884,"o":"m 257 -39 l 17 602 l 104 602 l 261 168 l 450 633 l 639 168 l 796 602 l 884 602 l 643 -39 l 452 440 l 257 -39 z "},"x":{"ha":547,"x_min":0,"x_max":542,"o":"m 21 602 l 125 602 l 272 380 l 419 602 l 521 602 l 318 313 l 542 0 l 439 0 l 271 243 l 104 0 l 0 0 l 225 313 l 21 602 z "},"y":{"ha":559,"x_min":29,"x_max":538,"o":"m 29 602 l 118 602 l 290 131 l 449 602 l 538 602 l 227 -302 l 140 -302 l 245 4 l 29 602 z "},"z":{"ha":529,"x_min":16,"x_max":505,"o":"m 16 0 l 351 526 l 39 526 l 39 602 l 496 602 l 163 75 l 505 75 l 505 0 l 16 0 z "},"{":{"ha":694,"x_min":119,"x_max":575,"o":"m 575 942 l 550 942 q 427 907 458 942 q 395 762 395 872 l 395 599 q 366 431 395 480 q 262 359 336 381 q 366 289 336 338 q 395 121 395 240 l 395 -43 q 426 -187 395 -153 q 549 -221 458 -221 l 575 -221 l 575 -281 l 546 -281 q 371 -230 418 -281 q 325 -26 325 -180 l 325 136 q 286 287 325 243 q 150 330 246 330 q 135 330 145 330 q 119 329 125 329 l 119 390 q 133 389 126 389 q 153 389 140 389 q 286 432 247 389 q 325 583 325 476 l 325 746 q 371 951 325 900 q 546 1002 418 1002 l 575 1002 l 575 942 z "},"|":{"ha":694,"x_min":317,"x_max":378,"o":"m 378 1061 l 378 -328 l 317 -328 l 317 1061 l 378 1061 z "},"}":{"ha":694,"x_min":119,"x_max":575,"o":"m 370 746 l 370 583 q 409 432 370 476 q 545 389 448 389 q 559 389 549 389 q 575 390 569 390 l 575 329 q 559 330 569 329 q 545 330 549 330 q 409 287 448 330 q 370 136 370 243 l 370 -26 q 323 -230 370 -180 q 149 -281 277 -281 l 119 -281 l 119 -221 l 146 -221 q 268 -187 237 -221 q 300 -43 300 -153 l 300 121 q 329 288 300 239 q 433 359 359 338 q 329 431 359 381 q 300 599 300 480 l 300 762 q 268 907 300 872 q 144 942 236 942 l 119 942 l 119 1002 l 149 1002 q 323 951 277 1002 q 370 746 370 900 z "},"~":{"ha":1157,"x_min":121,"x_max":1038,"o":"m 1038 439 q 901 364 966 389 q 775 339 836 339 q 595 380 708 339 q 580 386 584 385 q 557 394 572 389 q 383 435 444 435 q 264 409 327 435 q 121 326 202 384 l 121 389 q 257 463 192 439 q 383 488 322 488 q 567 446 451 488 q 580 441 575 443 q 598 435 585 439 q 775 393 712 393 q 894 419 831 393 q 1038 501 956 444 l 1038 439 z "},"Ä":{"ha":829,"x_min":-12,"x_max":842,"o":"m 241 414 l 587 414 l 418 846 l 241 414 m -12 0 l 424 1032 l 842 0 l 743 0 l 616 336 l 211 336 l 79 0 l -12 0 m 468 1198 q 488 1244 468 1225 q 534 1264 507 1264 q 581 1244 562 1264 q 600 1198 600 1225 q 581 1151 600 1169 q 534 1133 563 1133 q 487 1151 506 1133 q 468 1198 468 1169 m 231 1198 q 250 1244 231 1225 q 296 1264 269 1264 q 342 1244 323 1264 q 362 1198 362 1225 q 343 1151 362 1170 q 296 1133 324 1133 q 249 1151 267 1133 q 231 1198 231 1168 z "},"Å":{"ha":829,"x_min":-12,"x_max":842,"o":"m 334 1178 q 360 1114 334 1140 q 424 1088 386 1088 q 488 1114 461 1088 q 514 1178 514 1140 q 488 1242 514 1216 q 424 1268 462 1268 q 360 1242 386 1268 q 334 1178 334 1216 m 264 1178 q 310 1292 264 1246 q 424 1337 356 1337 q 537 1292 491 1337 q 583 1178 583 1246 q 537 1064 583 1111 q 424 1018 491 1018 q 310 1064 357 1018 q 264 1178 264 1111 m 241 414 l 587 414 l 418 843 l 241 414 m -12 0 l 411 990 l 437 990 l 842 0 l 743 0 l 616 336 l 211 336 l 79 0 l -12 0 z "},"Ç":{"ha":993,"x_min":77,"x_max":922,"o":"m 921 811 q 770 905 847 875 q 607 936 692 936 q 294 814 414 936 q 174 496 174 692 q 203 319 174 397 q 293 179 233 240 q 430 88 353 119 q 595 57 507 57 q 762 86 680 57 q 916 172 843 115 l 916 66 q 761 -2 842 22 q 599 -26 679 -26 q 393 12 491 -26 q 224 121 294 51 q 114 288 151 193 q 77 496 77 382 q 115 703 77 607 q 225 869 153 800 q 394 977 295 938 q 599 1015 492 1015 q 775 989 694 1015 q 922 911 856 963 l 921 811 m 440 -257 l 440 -210 q 538 -228 507 -223 q 593 -232 570 -232 q 656 -217 635 -232 q 677 -172 677 -202 q 654 -126 677 -141 q 582 -111 630 -111 q 568 -112 578 -111 q 554 -113 559 -113 l 554 0 l 595 0 l 595 -68 l 606 -68 q 713 -95 675 -68 q 750 -171 750 -121 q 713 -254 750 -227 q 604 -282 677 -282 q 530 -276 570 -282 q 440 -257 490 -270 z "},"É":{"ha":713,"x_min":123,"x_max":615,"o":"m 123 0 l 123 993 l 615 993 l 615 908 l 214 908 l 214 597 l 615 597 l 615 513 l 214 513 l 214 85 l 615 85 l 615 0 l 123 0 m 277 1090 l 421 1328 l 532 1328 l 340 1090 l 277 1090 z "},"Ñ":{"ha":1035,"x_min":123,"x_max":911,"o":"m 123 0 l 123 1035 l 827 204 l 827 993 l 911 993 l 911 -29 l 208 803 l 208 0 l 123 0 m 715 1270 q 664 1177 699 1208 q 581 1145 630 1145 q 559 1146 570 1145 q 536 1152 548 1148 l 482 1170 q 464 1174 474 1173 q 443 1175 454 1175 q 407 1165 422 1175 q 380 1134 391 1155 l 321 1134 q 370 1224 336 1193 q 456 1255 404 1255 q 477 1253 467 1255 q 496 1249 488 1252 l 549 1231 q 570 1226 560 1227 q 590 1224 581 1224 q 631 1236 614 1224 q 656 1270 648 1247 l 715 1270 z "},"Ö":{"ha":1215,"x_min":77,"x_max":1139,"o":"m 607 54 q 774 87 695 54 q 916 182 852 119 q 1010 325 977 245 q 1043 494 1043 406 q 1010 664 1043 584 q 916 807 978 743 q 775 902 854 869 q 607 935 696 935 q 441 902 519 935 q 300 807 363 869 q 205 664 237 743 q 172 494 172 585 q 205 325 172 405 q 300 182 237 245 q 439 86 362 119 q 607 54 517 54 m 1139 494 q 1099 295 1139 389 q 983 126 1059 200 q 810 13 907 52 q 607 -26 714 -26 q 404 13 500 -26 q 232 126 308 52 q 116 295 156 201 q 77 494 77 389 q 116 695 77 601 q 232 865 156 790 q 402 977 307 939 q 607 1015 498 1015 q 813 977 717 1015 q 983 865 909 939 q 1099 695 1059 790 q 1139 494 1139 601 m 661 1198 q 681 1244 661 1225 q 728 1264 701 1264 q 774 1244 755 1264 q 793 1198 793 1225 q 774 1151 793 1169 q 728 1133 756 1133 q 680 1151 699 1133 q 661 1198 661 1169 m 424 1198 q 443 1244 424 1225 q 489 1264 462 1264 q 536 1244 516 1264 q 555 1198 555 1225 q 536 1151 555 1170 q 489 1133 517 1133 q 442 1151 460 1133 q 424 1198 424 1168 z "},"Ü":{"ha":961,"x_min":119,"x_max":842,"o":"m 119 993 l 208 993 l 208 345 q 275 126 208 197 q 481 54 342 54 q 684 126 617 54 q 751 345 751 197 l 751 993 l 842 993 l 842 374 q 752 73 842 172 q 481 -26 663 -26 q 209 73 298 -26 q 119 374 119 172 l 119 993 m 534 1198 q 553 1244 534 1225 q 600 1264 573 1264 q 646 1244 627 1264 q 665 1198 665 1225 q 647 1151 665 1169 q 600 1133 629 1133 q 553 1151 572 1133 q 534 1198 534 1169 m 296 1198 q 315 1244 296 1225 q 361 1264 334 1264 q 408 1244 389 1264 q 428 1198 428 1225 q 409 1151 428 1170 q 361 1133 390 1133 q 315 1151 333 1133 q 296 1198 296 1168 z "},"á":{"ha":751,"x_min":57,"x_max":639,"o":"m 150 294 q 202 115 150 178 q 353 52 255 52 q 502 120 448 52 q 557 310 557 189 q 503 484 557 420 q 354 547 448 547 q 205 480 260 547 q 150 294 150 412 m 555 0 l 555 110 q 472 8 526 43 q 345 -26 418 -26 q 136 62 215 -26 q 57 297 57 151 q 135 533 57 441 q 336 624 213 624 q 469 590 413 624 q 555 492 525 557 l 555 602 l 639 602 l 639 0 l 555 0 m 286 699 l 431 936 l 542 936 l 350 699 l 286 699 z "},"à":{"ha":751,"x_min":57,"x_max":639,"o":"m 150 294 q 202 115 150 178 q 353 52 255 52 q 502 120 448 52 q 557 310 557 189 q 503 484 557 420 q 354 547 448 547 q 205 480 260 547 q 150 294 150 412 m 555 0 l 555 110 q 472 8 526 43 q 345 -26 418 -26 q 136 62 215 -26 q 57 297 57 151 q 135 533 57 441 q 336 624 213 624 q 469 590 413 624 q 555 492 525 557 l 555 602 l 639 602 l 639 0 l 555 0 m 467 699 l 403 699 l 211 936 l 322 936 l 467 699 z "},"â":{"ha":751,"x_min":57,"x_max":639,"o":"m 150 294 q 202 115 150 178 q 353 52 255 52 q 502 120 448 52 q 557 310 557 189 q 503 484 557 420 q 354 547 448 547 q 205 480 260 547 q 150 294 150 412 m 555 0 l 555 110 q 472 8 526 43 q 345 -26 418 -26 q 136 62 215 -26 q 57 297 57 151 q 135 533 57 441 q 336 624 213 624 q 469 590 413 624 q 555 492 525 557 l 555 602 l 639 602 l 639 0 l 555 0 m 182 699 l 326 936 l 425 936 l 570 699 l 507 699 l 376 868 l 244 699 l 182 699 z "},"ä":{"ha":751,"x_min":57,"x_max":639,"o":"m 150 294 q 202 115 150 178 q 353 52 255 52 q 502 120 448 52 q 557 310 557 189 q 503 484 557 420 q 354 547 448 547 q 205 480 260 547 q 150 294 150 412 m 555 0 l 555 110 q 472 8 526 43 q 345 -26 418 -26 q 136 62 215 -26 q 57 297 57 151 q 135 533 57 441 q 336 624 213 624 q 469 590 413 624 q 555 492 525 557 l 555 602 l 639 602 l 639 0 l 555 0 m 429 806 q 449 852 429 833 q 496 872 469 872 q 542 852 523 872 q 561 806 561 833 q 543 759 561 777 q 496 741 524 741 q 448 759 467 741 q 429 806 429 777 m 192 806 q 211 852 192 833 q 257 872 230 872 q 304 852 284 872 q 323 806 323 833 q 304 759 323 778 q 257 741 286 741 q 210 759 229 741 q 192 806 192 777 z "},"ã":{"ha":751,"x_min":57,"x_max":639,"o":"m 150 294 q 202 115 150 178 q 353 52 255 52 q 502 120 448 52 q 557 310 557 189 q 503 484 557 420 q 354 547 448 547 q 205 480 260 547 q 150 294 150 412 m 555 0 l 555 110 q 472 8 526 43 q 345 -26 418 -26 q 136 62 215 -26 q 57 297 57 151 q 135 533 57 441 q 336 624 213 624 q 469 590 413 624 q 555 492 525 557 l 555 602 l 639 602 l 639 0 l 555 0 m 574 878 q 523 785 557 817 q 439 753 488 753 q 417 754 428 753 q 395 760 406 756 l 340 778 q 322 782 332 781 q 301 783 313 783 q 265 773 280 783 q 239 742 250 763 l 179 742 q 228 832 194 801 q 314 863 262 863 q 336 861 326 863 q 354 857 346 860 l 407 839 q 429 834 418 836 q 448 832 439 832 q 489 844 473 832 q 514 878 506 855 l 574 878 z "},"å":{"ha":751,"x_min":57,"x_max":639,"o":"m 150 294 q 202 115 150 178 q 353 52 255 52 q 502 120 448 52 q 557 310 557 189 q 503 484 557 420 q 354 547 448 547 q 205 480 260 547 q 150 294 150 412 m 555 0 l 555 110 q 472 8 526 43 q 345 -26 418 -26 q 136 62 215 -26 q 57 297 57 151 q 135 533 57 441 q 336 624 213 624 q 469 590 413 624 q 555 492 525 557 l 555 602 l 639 602 l 639 0 l 555 0 m 267 828 q 293 764 267 790 q 357 737 319 737 q 421 764 395 737 q 447 828 447 790 q 421 893 447 866 q 357 920 395 920 q 293 893 319 920 q 267 828 267 866 m 197 828 q 243 941 197 895 q 357 987 289 987 q 471 941 425 987 q 517 828 517 895 q 471 714 517 761 q 357 668 425 668 q 244 714 290 668 q 197 828 197 761 z "},"ç":{"ha":633,"x_min":62,"x_max":589,"o":"m 579 492 q 490 535 537 521 q 392 550 442 550 q 214 478 280 550 q 147 288 147 407 q 216 113 147 182 q 392 45 285 45 q 491 62 441 45 q 589 113 541 79 l 589 21 q 491 -17 545 -4 q 376 -29 437 -29 q 151 61 239 -29 q 62 293 62 152 q 154 532 62 440 q 393 624 246 624 q 495 613 448 624 q 581 583 543 603 l 579 492 m 227 -257 l 227 -210 q 325 -228 293 -223 q 379 -232 357 -232 q 443 -217 422 -232 q 464 -172 464 -202 q 440 -126 464 -141 q 368 -111 416 -111 q 355 -112 364 -111 q 340 -113 345 -113 l 340 0 l 382 0 l 382 -68 l 392 -68 q 499 -95 462 -68 q 536 -171 536 -121 q 500 -254 536 -227 q 391 -282 463 -282 q 317 -276 357 -282 q 227 -257 277 -270 z "},"é":{"ha":690,"x_min":60,"x_max":632,"o":"m 529 370 q 474 498 523 452 q 342 543 425 543 q 215 496 266 543 q 155 370 163 448 l 529 370 m 628 298 l 150 298 q 208 115 153 182 q 355 49 263 49 q 472 85 422 49 q 555 193 522 121 l 632 151 q 519 17 586 60 q 355 -26 452 -26 q 141 62 223 -26 q 60 294 60 151 q 141 533 60 442 q 353 624 222 624 q 553 540 477 624 q 628 317 628 456 l 628 298 m 256 699 l 400 936 l 511 936 l 319 699 l 256 699 z "},"è":{"ha":690,"x_min":60,"x_max":632,"o":"m 529 370 q 474 498 523 452 q 342 543 425 543 q 215 496 266 543 q 155 370 163 448 l 529 370 m 628 298 l 150 298 q 208 115 153 182 q 355 49 263 49 q 472 85 422 49 q 555 193 522 121 l 632 151 q 519 17 586 60 q 355 -26 452 -26 q 141 62 223 -26 q 60 294 60 151 q 141 533 60 442 q 353 624 222 624 q 553 540 477 624 q 628 317 628 456 l 628 298 m 436 699 l 372 699 l 180 936 l 292 936 l 436 699 z "},"ê":{"ha":690,"x_min":60,"x_max":632,"o":"m 529 370 q 474 498 523 452 q 342 543 425 543 q 215 496 266 543 q 155 370 163 448 l 529 370 m 628 298 l 150 298 q 208 115 153 182 q 355 49 263 49 q 472 85 422 49 q 555 193 522 121 l 632 151 q 519 17 586 60 q 355 -26 452 -26 q 141 62 223 -26 q 60 294 60 151 q 141 533 60 442 q 353 624 222 624 q 553 540 477 624 q 628 317 628 456 l 628 298 m 151 699 l 296 936 l 395 936 l 539 699 l 477 699 l 346 868 l 214 699 l 151 699 z "},"ë":{"ha":690,"x_min":60,"x_max":632,"o":"m 529 370 q 474 498 523 452 q 342 543 425 543 q 215 496 266 543 q 155 370 163 448 l 529 370 m 628 298 l 150 298 q 208 115 153 182 q 355 49 263 49 q 472 85 422 49 q 555 193 522 121 l 632 151 q 519 17 586 60 q 355 -26 452 -26 q 141 62 223 -26 q 60 294 60 151 q 141 533 60 442 q 353 624 222 624 q 553 540 477 624 q 628 317 628 456 l 628 298 m 399 806 q 418 852 399 833 q 465 872 438 872 q 511 852 492 872 q 530 806 530 833 q 512 759 530 777 q 465 741 494 741 q 418 759 437 741 q 399 806 399 777 m 161 806 q 180 852 161 833 q 227 872 199 872 q 273 852 254 872 q 293 806 293 833 q 274 759 293 778 q 227 741 255 741 q 180 759 198 741 q 161 806 161 777 z "},"í":{"ha":319,"x_min":70,"x_max":326,"o":"m 117 0 l 117 602 l 203 602 l 203 0 l 117 0 m 70 699 l 214 936 l 326 936 l 134 699 l 70 699 z "},"ì":{"ha":319,"x_min":-5,"x_max":250,"o":"m 117 0 l 117 602 l 203 602 l 203 0 l 117 0 m 250 699 l 186 699 l -5 936 l 106 936 l 250 699 z "},"î":{"ha":319,"x_min":-35,"x_max":353,"o":"m 117 0 l 117 602 l 203 602 l 203 0 l 117 0 m -35 699 l 110 936 l 209 936 l 353 699 l 291 699 l 160 868 l 28 699 l -35 699 z "},"ï":{"ha":319,"x_min":-24,"x_max":345,"o":"m 117 0 l 117 602 l 203 602 l 203 0 l 117 0 m 213 806 q 233 852 213 833 q 279 872 252 872 q 326 852 307 872 q 345 806 345 833 q 326 759 345 777 q 279 741 308 741 q 232 759 251 741 q 213 806 213 777 m -24 806 q -5 852 -24 833 q 41 872 14 872 q 87 852 68 872 q 107 806 107 833 q 88 759 107 778 q 41 741 69 741 q -6 759 12 741 q -24 806 -24 777 z "},"ñ":{"ha":724,"x_min":111,"x_max":619,"o":"m 111 0 l 111 602 l 191 602 l 191 509 q 280 595 227 566 q 403 624 334 624 q 562 567 505 624 q 619 408 619 510 l 619 0 l 534 0 l 534 371 q 497 505 534 461 q 380 549 459 549 q 240 492 285 549 q 195 314 195 435 l 195 0 l 111 0 m 560 878 q 509 785 543 817 q 425 753 475 753 q 404 754 414 753 q 381 760 393 756 l 327 778 q 309 782 319 781 q 288 783 299 783 q 251 773 267 783 q 225 742 236 763 l 165 742 q 215 832 180 801 q 300 863 249 863 q 322 861 312 863 q 340 857 332 860 l 393 839 q 415 834 405 836 q 435 832 425 832 q 476 844 459 832 q 500 878 492 855 l 560 878 z "},"ó":{"ha":775,"x_min":61,"x_max":714,"o":"m 387 52 q 555 123 486 52 q 624 298 624 195 q 555 475 624 404 q 387 546 487 546 q 220 475 288 546 q 151 298 151 404 q 220 123 151 195 q 387 52 288 52 m 385 -26 q 261 -1 320 -26 q 154 72 202 24 q 85 175 109 117 q 61 300 61 233 q 85 425 61 366 q 155 529 110 484 q 260 600 201 575 q 385 624 319 624 q 511 600 451 624 q 618 529 571 575 q 689 424 665 483 q 714 300 714 365 q 690 176 714 235 q 619 72 665 117 q 511 -1 572 24 q 385 -26 450 -26 m 297 699 l 441 936 l 553 936 l 361 699 l 297 699 z "},"ò":{"ha":775,"x_min":61,"x_max":714,"o":"m 387 52 q 555 123 486 52 q 624 298 624 195 q 555 475 624 404 q 387 546 487 546 q 220 475 288 546 q 151 298 151 404 q 220 123 151 195 q 387 52 288 52 m 385 -26 q 261 -1 320 -26 q 154 72 202 24 q 85 175 109 117 q 61 300 61 233 q 85 425 61 366 q 155 529 110 484 q 260 600 201 575 q 385 624 319 624 q 511 600 451 624 q 618 529 571 575 q 689 424 665 483 q 714 300 714 365 q 690 176 714 235 q 619 72 665 117 q 511 -1 572 24 q 385 -26 450 -26 m 477 699 l 414 699 l 222 936 l 333 936 l 477 699 z "},"ô":{"ha":775,"x_min":61,"x_max":714,"o":"m 387 52 q 555 123 486 52 q 624 298 624 195 q 555 475 624 404 q 387 546 487 546 q 220 475 288 546 q 151 298 151 404 q 220 123 151 195 q 387 52 288 52 m 385 -26 q 261 -1 320 -26 q 154 72 202 24 q 85 175 109 117 q 61 300 61 233 q 85 425 61 366 q 155 529 110 484 q 260 600 201 575 q 385 624 319 624 q 511 600 451 624 q 618 529 571 575 q 689 424 665 483 q 714 300 714 365 q 690 176 714 235 q 619 72 665 117 q 511 -1 572 24 q 385 -26 450 -26 m 193 699 l 337 936 l 436 936 l 581 699 l 518 699 l 387 868 l 255 699 l 193 699 z "},"ö":{"ha":775,"x_min":61,"x_max":714,"o":"m 387 52 q 555 123 486 52 q 624 298 624 195 q 555 475 624 404 q 387 546 487 546 q 220 475 288 546 q 151 298 151 404 q 220 123 151 195 q 387 52 288 52 m 385 -26 q 261 -1 320 -26 q 154 72 202 24 q 85 175 109 117 q 61 300 61 233 q 85 425 61 366 q 155 529 110 484 q 260 600 201 575 q 385 624 319 624 q 511 600 451 624 q 618 529 571 575 q 689 424 665 483 q 714 300 714 365 q 690 176 714 235 q 619 72 665 117 q 511 -1 572 24 q 385 -26 450 -26 m 440 806 q 460 852 440 833 q 507 872 479 872 q 553 852 534 872 q 572 806 572 833 q 553 759 572 777 q 507 741 535 741 q 459 759 478 741 q 440 806 440 777 m 203 806 q 222 852 203 833 q 268 872 241 872 q 315 852 295 872 q 334 806 334 833 q 315 759 334 778 q 268 741 296 741 q 221 759 239 741 q 203 806 203 777 z "},"õ":{"ha":775,"x_min":61,"x_max":714,"o":"m 387 52 q 555 123 486 52 q 624 298 624 195 q 555 475 624 404 q 387 546 487 546 q 220 475 288 546 q 151 298 151 404 q 220 123 151 195 q 387 52 288 52 m 385 -26 q 261 -1 320 -26 q 154 72 202 24 q 85 175 109 117 q 61 300 61 233 q 85 425 61 366 q 155 529 110 484 q 260 600 201 575 q 385 624 319 624 q 511 600 451 624 q 618 529 571 575 q 689 424 665 483 q 714 300 714 365 q 690 176 714 235 q 619 72 665 117 q 511 -1 572 24 q 385 -26 450 -26 m 585 878 q 533 785 568 817 q 450 753 499 753 q 428 754 439 753 q 406 760 417 756 l 351 778 q 333 782 343 781 q 312 783 323 783 q 276 773 291 783 q 250 742 260 763 l 190 742 q 239 832 205 801 q 325 863 273 863 q 347 861 336 863 q 365 857 357 860 l 418 839 q 439 834 429 836 q 459 832 450 832 q 500 844 484 832 q 525 878 517 855 l 585 878 z "},"ú":{"ha":732,"x_min":111,"x_max":621,"o":"m 195 602 l 195 301 q 234 108 195 164 q 366 52 273 52 q 498 109 458 52 q 538 301 538 165 l 538 602 l 621 602 l 621 258 q 556 46 621 118 q 367 -26 492 -26 q 176 46 241 -26 q 111 258 111 118 l 111 602 l 195 602 m 277 699 l 421 936 l 532 936 l 340 699 l 277 699 z "},"ù":{"ha":732,"x_min":111,"x_max":621,"o":"m 195 602 l 195 301 q 234 108 195 164 q 366 52 273 52 q 498 109 458 52 q 538 301 538 165 l 538 602 l 621 602 l 621 258 q 556 46 621 118 q 367 -26 492 -26 q 176 46 241 -26 q 111 258 111 118 l 111 602 l 195 602 m 457 699 l 393 699 l 201 936 l 313 936 l 457 699 z "},"û":{"ha":732,"x_min":111,"x_max":621,"o":"m 195 602 l 195 301 q 234 108 195 164 q 366 52 273 52 q 498 109 458 52 q 538 301 538 165 l 538 602 l 621 602 l 621 258 q 556 46 621 118 q 367 -26 492 -26 q 176 46 241 -26 q 111 258 111 118 l 111 602 l 195 602 m 172 699 l 317 936 l 416 936 l 560 699 l 498 699 l 367 868 l 235 699 l 172 699 z "},"ü":{"ha":732,"x_min":111,"x_max":621,"o":"m 195 602 l 195 301 q 234 108 195 164 q 366 52 273 52 q 498 109 458 52 q 538 301 538 165 l 538 602 l 621 602 l 621 258 q 556 46 621 118 q 367 -26 492 -26 q 176 46 241 -26 q 111 258 111 118 l 111 602 l 195 602 m 420 806 q 439 852 420 833 q 486 872 459 872 q 532 852 513 872 q 551 806 551 833 q 533 759 551 777 q 486 741 515 741 q 439 759 458 741 q 420 806 420 777 m 182 806 q 201 852 182 833 q 248 872 220 872 q 294 852 275 872 q 314 806 314 833 q 295 759 314 778 q 248 741 276 741 q 201 759 219 741 q 182 806 182 777 z "},"†":{"ha":707,"x_min":68,"x_max":640,"o":"m 313 -302 l 313 525 l 68 525 l 68 603 l 313 603 l 313 993 l 396 993 l 396 603 l 640 603 l 640 525 l 396 525 l 396 -302 l 313 -302 z "},"°":{"ha":457,"x_min":43,"x_max":414,"o":"m 374 798 q 331 899 374 857 q 229 942 288 942 q 127 900 169 942 q 85 798 85 858 q 127 695 85 737 q 229 653 170 653 q 331 695 289 653 q 374 798 374 737 m 229 983 q 359 929 305 983 q 414 798 414 874 q 359 666 414 720 q 228 612 305 612 q 96 666 150 612 q 43 798 43 720 q 97 929 43 875 q 229 983 152 983 z "},"¢":{"ha":800,"x_min":83,"x_max":631,"o":"m 385 753 q 232 674 292 743 q 172 507 172 604 q 229 335 172 403 q 385 254 286 268 l 385 753 m 631 697 q 541 739 589 724 q 439 755 493 753 l 439 250 q 552 274 505 258 q 631 315 599 290 l 631 227 q 545 191 592 203 q 439 178 497 179 l 439 39 l 385 39 l 385 179 q 167 276 251 186 q 83 498 83 365 q 164 723 83 634 q 385 828 245 811 l 385 937 l 439 937 l 439 829 q 533 819 485 829 q 631 789 581 809 l 631 697 z "},"£":{"ha":800,"x_min":68,"x_max":747,"o":"m 68 14 q 125 88 92 60 q 200 129 158 117 q 241 201 228 168 q 254 268 254 235 q 247 331 254 298 q 224 407 239 365 l 68 407 l 68 468 l 193 468 q 141 603 159 540 q 123 720 123 667 q 208 924 123 844 q 428 1003 293 1003 q 644 927 565 1003 q 728 713 723 850 l 642 698 q 584 864 640 804 q 431 924 528 924 q 273 868 332 924 q 215 718 215 812 q 232 612 215 673 q 283 468 249 550 l 547 468 l 547 407 l 304 407 q 324 340 318 370 q 330 288 330 311 q 313 200 330 239 q 262 132 296 161 q 415 93 323 131 q 545 54 507 54 q 621 78 586 54 q 688 151 656 101 l 747 111 q 662 8 710 41 q 550 -25 614 -25 q 401 16 493 -25 q 268 57 309 57 q 193 36 228 57 q 126 -28 158 15 l 68 14 z "},"§":{"ha":707,"x_min":78,"x_max":633,"o":"m 357 172 q 489 227 434 172 q 543 359 543 281 q 492 494 543 442 q 357 546 440 546 q 224 492 279 546 q 170 359 170 437 q 220 223 170 274 q 357 172 271 172 m 119 -62 l 205 -63 q 246 -181 208 -142 q 359 -221 284 -221 q 470 -183 430 -221 q 510 -77 510 -144 q 479 11 510 -22 q 335 86 448 44 q 215 135 251 117 q 158 171 178 153 q 98 254 117 208 q 78 359 78 300 q 127 506 78 443 q 261 596 176 569 q 149 677 185 627 q 113 798 113 726 q 181 957 113 897 q 364 1017 249 1017 q 539 958 478 1017 q 600 790 600 900 l 600 777 l 509 777 q 468 901 505 859 q 358 943 430 943 q 250 904 292 943 q 208 803 208 865 q 243 705 208 743 q 385 629 278 668 q 578 519 524 579 q 633 363 633 458 q 588 210 633 271 q 454 121 543 149 q 565 37 528 89 q 602 -86 602 -15 q 534 -245 602 -182 q 361 -309 467 -309 q 184 -246 250 -309 q 119 -78 119 -184 l 119 -62 z "},"•":{"ha":819,"x_min":208,"x_max":610,"o":"m 208 517 q 267 659 208 600 q 410 717 326 717 q 551 658 492 717 q 610 517 610 600 q 550 375 610 434 q 408 315 491 315 q 267 374 325 315 q 208 517 208 433 z "},"¶":{"ha":694,"x_min":61,"x_max":632,"o":"m 632 960 l 545 960 l 545 0 l 497 0 l 497 960 l 367 960 l 367 0 l 319 0 l 319 530 q 131 600 201 536 q 61 766 61 664 q 135 938 61 873 q 329 1003 208 1003 l 632 1003 l 632 960 z "},"ß":{"ha":718,"x_min":22,"x_max":652,"o":"m 104 0 l 104 530 l 22 530 l 22 602 l 104 602 l 104 803 q 167 997 104 929 q 346 1065 230 1065 q 524 995 458 1065 q 589 802 589 924 q 552 669 589 723 q 441 586 515 614 q 598 499 544 574 q 652 293 652 425 q 573 57 652 145 q 363 -31 495 -31 q 323 -26 343 -31 q 279 -14 302 -22 l 279 75 q 322 59 300 64 q 368 54 345 54 q 513 117 462 54 q 564 294 564 180 q 507 479 564 416 q 343 543 451 543 q 325 543 335 543 q 294 541 315 542 l 294 625 q 307 624 300 625 q 328 624 314 624 q 460 669 417 624 q 503 807 503 714 q 461 942 503 896 q 339 989 419 989 q 257 967 292 989 q 205 907 222 946 q 192 853 196 885 q 187 753 187 821 l 187 696 l 187 0 l 104 0 z "},"®":{"ha":1157,"x_min":83,"x_max":1074,"o":"m 578 730 l 464 730 l 464 518 l 578 518 q 713 543 676 518 q 750 628 750 567 q 708 706 750 681 q 578 730 667 730 m 593 783 q 772 745 715 783 q 829 625 829 707 q 792 524 829 565 q 692 476 754 484 l 821 210 l 732 210 l 608 465 l 464 465 l 464 210 l 386 210 l 386 783 l 593 783 m 1025 489 q 991 660 1025 579 q 896 804 958 741 q 750 902 831 869 q 578 936 669 936 q 407 903 488 936 q 265 807 327 869 q 166 659 201 741 q 132 489 132 577 q 166 320 132 401 q 264 175 200 239 q 409 77 328 111 q 578 43 490 43 q 748 77 666 43 q 896 176 831 112 q 992 318 959 239 q 1025 489 1025 398 m 578 985 q 769 947 679 985 q 930 839 860 910 q 1037 680 1000 770 q 1074 489 1074 589 q 1037 299 1074 387 q 930 142 1001 211 q 767 32 858 70 q 578 -7 675 -7 q 390 31 479 -7 q 229 140 300 68 q 121 300 158 211 q 83 489 83 390 q 121 678 83 587 q 231 842 159 769 q 388 948 299 911 q 578 985 477 985 z "},"©":{"ha":1157,"x_min":83,"x_max":1074,"o":"m 733 623 q 679 708 720 677 q 579 739 639 739 q 446 673 494 739 q 399 488 399 607 q 447 307 399 373 q 579 240 496 240 q 685 276 641 240 q 742 371 729 311 l 811 371 q 738 235 804 288 q 575 182 672 182 q 389 266 458 182 q 319 492 319 349 q 392 714 319 631 q 583 798 465 798 q 734 749 673 798 q 804 623 795 700 l 733 623 m 1025 489 q 991 660 1025 579 q 896 804 958 741 q 750 902 831 869 q 578 936 669 936 q 407 903 488 936 q 265 807 327 869 q 166 659 201 741 q 132 489 132 577 q 166 320 132 401 q 264 175 200 239 q 409 77 328 111 q 578 43 490 43 q 748 77 666 43 q 896 176 831 112 q 992 318 959 239 q 1025 489 1025 398 m 578 985 q 769 947 679 985 q 930 839 860 910 q 1037 680 1000 770 q 1074 489 1074 589 q 1037 299 1074 387 q 930 142 1001 211 q 767 32 858 70 q 578 -7 675 -7 q 390 31 479 -7 q 229 140 300 68 q 121 300 158 211 q 83 489 83 390 q 121 678 83 587 q 231 842 159 769 q 388 948 299 911 q 578 985 477 985 z "},"™":{"ha":1157,"x_min":186,"x_max":925,"o":"m 628 986 l 746 688 l 856 986 l 925 986 l 925 627 l 885 627 l 885 951 l 762 627 l 729 627 l 600 951 l 600 627 l 559 627 l 559 986 l 628 986 m 471 986 l 471 951 l 353 951 l 353 627 l 307 627 l 307 951 l 186 951 l 186 986 l 471 986 z "},"´":{"ha":694,"x_min":257,"x_max":513,"o":"m 257 699 l 401 936 l 513 936 l 321 699 l 257 699 z "},"¨":{"ha":694,"x_min":163,"x_max":532,"o":"m 400 806 q 420 852 400 833 q 467 872 439 872 q 513 852 494 872 q 532 806 532 833 q 513 759 532 777 q 467 741 495 741 q 419 759 438 741 q 400 806 400 777 m 163 806 q 182 852 163 833 q 228 872 201 872 q 275 852 255 872 q 294 806 294 833 q 275 759 294 778 q 228 741 256 741 q 181 759 199 741 q 163 806 163 777 z "},"≠":{"ha":1157,"x_min":172,"x_max":985,"o":"m 868 751 l 721 564 l 985 564 l 985 510 l 686 510 l 538 318 l 985 318 l 985 262 l 503 262 l 330 43 l 289 75 l 435 262 l 172 262 l 172 318 l 468 318 l 618 510 l 172 510 l 172 564 l 653 564 l 825 785 l 868 751 z "},"Æ":{"ha":1145,"x_min":5,"x_max":1139,"o":"m 236 414 l 546 414 l 399 863 l 236 414 m 92 0 l 5 0 l 364 993 l 783 993 l 811 908 l 468 908 l 575 597 l 932 597 l 961 513 l 604 513 l 750 85 l 1111 85 l 1139 0 l 688 0 l 572 336 l 211 336 l 92 0 z "},"Ø":{"ha":1215,"x_min":77,"x_max":1139,"o":"m 332 158 q 465 82 397 106 q 607 57 532 57 q 774 91 694 57 q 916 186 854 124 q 1010 328 978 248 q 1043 496 1043 407 q 1018 645 1043 575 q 939 782 992 715 l 332 158 m 895 828 q 761 909 833 882 q 607 936 689 936 q 440 903 519 936 q 300 808 361 870 q 206 666 238 745 q 174 496 174 586 q 201 341 174 412 q 286 201 228 270 l 895 828 m 149 -31 l 104 17 l 224 139 q 114 300 152 208 q 77 496 77 391 q 116 696 77 602 q 232 864 156 790 q 404 977 307 938 q 607 1017 500 1017 q 798 985 710 1017 q 956 890 886 953 l 1080 1021 l 1128 975 l 1002 846 q 1103 684 1067 774 q 1139 496 1139 593 q 1099 296 1139 390 q 983 127 1059 201 q 810 16 907 54 q 600 -22 713 -22 q 425 6 505 -22 q 269 94 344 35 l 149 -31 z "},"∞":{"ha":1157,"x_min":161,"x_max":996,"o":"m 603 378 q 688 273 640 308 q 798 239 736 239 q 917 292 870 239 q 964 427 964 345 q 921 560 964 507 q 812 612 878 612 q 706 560 753 612 q 603 378 658 507 m 555 454 q 472 558 520 524 q 361 593 423 593 q 241 540 288 593 q 195 406 195 488 q 238 273 195 326 q 346 221 281 221 q 453 273 406 221 q 555 454 500 324 m 567 484 q 666 624 612 578 q 786 669 720 669 q 935 597 874 669 q 996 418 996 526 q 941 237 996 306 q 799 168 887 168 q 687 209 735 168 q 590 346 638 250 q 489 208 542 252 q 372 164 437 164 q 223 236 284 164 q 161 415 161 309 q 216 596 161 528 q 358 665 270 665 q 475 622 425 665 q 567 484 526 578 z "},"±":{"ha":1157,"x_min":172,"x_max":985,"o":"m 985 96 l 985 40 l 172 40 l 172 96 l 985 96 m 606 787 l 606 547 l 985 547 l 985 493 l 606 493 l 606 254 l 551 254 l 551 493 l 172 493 l 172 547 l 551 547 l 551 787 l 606 787 z "},"≤":{"ha":1157,"x_min":179,"x_max":978,"o":"m 978 87 l 978 33 l 179 33 l 179 87 l 978 87 m 978 734 l 271 497 l 978 258 l 978 199 l 179 473 l 179 521 l 978 794 l 978 734 z "},"≥":{"ha":1157,"x_min":179,"x_max":978,"o":"m 978 87 l 978 33 l 179 33 l 179 87 l 978 87 m 978 521 l 978 473 l 179 199 l 179 258 l 886 497 l 179 734 l 179 794 l 978 521 z "},"¥":{"ha":802,"x_min":22,"x_max":778,"o":"m 359 0 l 359 428 l 22 428 l 22 494 l 332 494 l 265 604 l 22 604 l 22 672 l 221 672 l 29 985 l 129 985 l 401 526 l 681 985 l 772 985 l 582 672 l 778 672 l 778 604 l 539 604 l 472 494 l 778 494 l 778 428 l 446 428 l 446 0 l 359 0 z "},"µ":{"ha":742,"x_min":-75,"x_max":693,"o":"m 221 721 l 138 321 q 129 269 132 292 q 126 225 126 245 q 167 95 126 140 q 285 50 208 50 q 434 124 371 50 q 526 336 496 198 l 611 721 l 693 721 l 581 188 q 577 172 579 182 q 564 96 564 109 q 575 64 564 75 q 610 53 587 53 q 622 53 616 53 q 636 54 629 54 l 624 -11 q 618 -12 622 -12 q 572 -20 585 -20 q 504 2 526 -20 q 482 66 482 23 q 483 77 482 71 q 485 97 483 83 q 401 11 456 41 q 273 -20 347 -20 q 158 11 208 -20 q 87 97 109 42 l 7 -288 l -75 -288 l 139 721 l 221 721 z "},"∂":{"ha":694,"x_min":92,"x_max":610,"o":"m 509 392 q 520 490 516 439 q 524 599 524 541 q 498 780 524 720 q 419 839 472 839 q 352 789 389 839 q 278 739 315 739 q 245 752 258 739 q 232 783 232 764 q 273 852 232 823 q 374 882 315 882 q 546 782 482 882 q 610 510 610 682 q 520 132 610 283 q 301 -18 431 -18 q 149 53 207 -18 q 92 243 92 124 q 164 444 92 360 q 339 528 237 528 q 447 494 405 528 q 509 392 488 461 m 484 311 q 452 440 484 396 q 358 485 420 485 q 229 400 279 485 q 179 176 179 315 q 211 55 179 97 q 304 12 243 12 q 433 97 382 12 q 484 311 484 182 z "},"∑":{"ha":875,"x_min":7,"x_max":850,"o":"m 31 999 l 850 999 l 850 916 l 146 916 l 635 382 l 119 -184 l 850 -184 l 850 -267 l 7 -267 l 7 -180 l 517 382 l 31 916 l 31 999 z "},"∏":{"ha":1011,"x_min":111,"x_max":900,"o":"m 111 999 l 900 999 l 900 -267 l 808 -267 l 808 916 l 203 916 l 203 -267 l 111 -267 l 111 999 z "},"π":{"ha":783,"x_min":4,"x_max":764,"o":"m 747 650 l 624 650 l 543 267 q 529 191 534 224 q 524 139 524 158 q 540 83 524 99 q 597 66 557 66 q 631 68 616 66 q 660 73 646 70 l 643 0 q 608 -8 623 -6 q 578 -11 592 -11 q 479 26 515 -11 q 443 126 443 62 q 451 209 443 158 q 481 364 458 260 l 541 650 l 282 650 l 144 0 l 62 0 l 199 650 l 172 650 q 114 628 135 650 q 86 559 94 606 l 4 559 q 62 686 21 651 q 201 721 102 721 l 764 721 l 747 650 z "},"∫":{"ha":643,"x_min":31,"x_max":612,"o":"m 272 392 q 331 889 272 730 q 513 1048 389 1048 q 585 1025 557 1048 q 612 964 612 1001 q 594 915 612 933 q 543 897 575 897 q 474 941 491 897 q 452 985 458 985 q 389 877 406 985 q 371 411 371 769 q 313 -93 371 66 q 131 -252 255 -252 q 59 -228 87 -252 q 31 -171 31 -205 q 50 -118 31 -138 q 102 -98 69 -98 q 140 -107 124 -98 q 167 -136 155 -117 q 175 -166 172 -146 q 192 -187 178 -187 q 254 -75 237 -187 q 272 392 272 37 z "},"ª":{"ha":564,"x_min":43,"x_max":479,"o":"m 113 778 q 152 652 113 696 q 265 608 192 608 q 377 656 336 608 q 418 789 418 705 q 377 911 418 867 q 265 956 336 956 q 154 908 195 956 q 113 778 113 860 m 416 572 l 416 648 q 353 578 393 602 q 258 554 313 554 q 102 616 161 554 q 43 781 43 678 q 101 945 43 882 q 253 1008 160 1008 q 352 985 311 1008 q 416 917 394 962 l 416 993 l 479 993 l 479 572 l 416 572 z "},"º":{"ha":582,"x_min":46,"x_max":536,"o":"m 290 608 q 416 659 365 608 q 468 782 468 709 q 417 904 468 854 q 290 954 366 954 q 165 904 216 954 q 114 782 114 854 q 165 659 114 709 q 290 608 216 608 m 289 554 q 196 571 240 554 q 115 623 152 589 q 63 695 81 654 q 46 782 46 735 q 64 869 46 828 q 117 943 82 911 q 195 991 151 975 q 289 1008 239 1008 q 384 992 340 1008 q 464 943 429 975 q 518 869 499 910 q 536 782 536 827 q 518 695 536 736 q 465 623 500 654 q 384 572 429 589 q 289 554 338 554 z "},"Ω":{"ha":1075,"x_min":87,"x_max":987,"o":"m 985 82 l 985 0 l 596 0 l 596 69 q 819 278 744 161 q 893 533 893 394 q 794 830 893 715 q 538 945 694 945 q 281 830 381 945 q 182 533 182 715 q 256 278 182 394 q 479 69 331 161 l 479 0 l 92 0 l 92 82 l 332 82 q 148 282 208 172 q 87 533 87 393 q 215 887 87 748 q 538 1026 343 1026 q 860 887 732 1026 q 987 533 987 748 q 927 282 987 393 q 743 82 867 172 l 985 82 z "},"æ":{"ha":1101,"x_min":49,"x_max":1044,"o":"m 1040 297 l 562 297 q 620 116 566 181 q 762 50 673 50 q 883 86 832 50 q 965 193 933 121 l 1044 151 q 929 16 998 60 q 764 -28 860 -28 q 620 9 680 -28 q 518 122 559 45 q 430 12 493 51 q 277 -28 366 -28 q 111 26 174 -28 q 49 167 49 79 q 116 312 49 256 q 294 368 184 368 q 400 353 353 368 q 481 309 447 338 q 483 326 483 317 q 484 353 484 335 q 438 503 484 454 q 297 551 392 551 q 195 538 245 551 q 93 498 144 526 l 94 587 q 197 615 145 606 q 304 624 249 624 q 458 590 396 624 q 536 497 519 557 q 627 591 569 557 q 760 624 686 624 q 964 539 888 624 q 1040 311 1040 454 l 1040 297 m 568 368 l 942 368 q 887 497 937 451 q 754 543 838 543 q 628 495 679 543 q 568 368 576 447 m 476 183 q 430 266 476 235 q 309 297 385 297 q 185 263 229 297 q 140 170 140 229 q 181 81 140 112 q 298 50 222 50 q 427 87 377 50 q 476 183 476 125 z "},"ø":{"ha":775,"x_min":60,"x_max":714,"o":"m 100 -28 l 62 12 l 138 89 q 79 189 98 138 q 60 293 60 239 q 154 529 60 434 q 390 624 249 624 q 497 606 448 624 q 595 549 547 587 l 669 625 l 711 586 l 635 511 q 694 410 675 462 q 714 301 714 358 q 618 67 714 161 q 379 -26 522 -26 q 275 -8 323 -26 q 179 50 226 11 l 100 -28 m 235 109 q 306 66 269 80 q 382 53 342 53 q 554 123 486 53 q 623 301 623 193 q 611 378 623 342 q 576 450 600 414 l 235 109 m 538 490 q 472 532 507 519 q 395 546 437 546 q 219 476 287 546 q 151 294 151 406 q 163 220 151 255 q 199 150 174 184 l 538 490 z "},"¿":{"ha":714,"x_min":117,"x_max":589,"o":"m 433 946 q 413 897 433 917 q 364 876 393 876 q 315 896 335 876 q 296 946 296 916 q 315 995 296 975 q 364 1015 335 1015 q 413 995 393 1015 q 433 946 433 975 m 509 248 l 589 248 l 589 225 q 523 41 589 109 q 343 -26 456 -26 q 178 35 240 -26 q 117 200 117 97 q 149 326 117 275 q 282 441 182 377 q 332 473 300 453 q 467 629 467 556 q 435 708 467 678 q 351 737 404 737 q 258 706 291 737 q 225 616 225 674 l 225 604 l 150 604 l 150 621 q 204 761 150 712 q 361 810 259 810 q 498 759 446 810 q 551 628 551 708 q 520 523 551 568 q 404 422 489 478 q 355 391 387 411 q 201 205 201 294 q 241 100 201 140 q 347 61 281 61 q 467 109 425 61 q 509 243 509 156 l 509 248 z "},"¡":{"ha":431,"x_min":146,"x_max":285,"o":"m 174 785 l 257 785 l 257 0 l 174 0 l 174 785 m 146 946 q 166 995 146 975 q 215 1015 186 1015 q 264 995 244 1015 q 285 946 285 975 q 264 897 285 917 q 215 876 244 876 q 166 897 186 876 q 146 946 146 917 z "},"¬":{"ha":1157,"x_min":172,"x_max":985,"o":"m 985 581 l 985 240 l 932 240 l 932 525 l 172 525 l 172 581 l 985 581 z "},"√":{"ha":857,"x_min":36,"x_max":857,"o":"m 857 1103 l 857 1061 l 770 1061 l 366 -28 l 345 -28 l 121 587 l 46 561 l 36 595 l 192 648 l 380 134 l 741 1103 l 857 1103 z "},"ƒ":{"ha":800,"x_min":126,"x_max":663,"o":"m 447 559 l 387 17 q 323 -239 366 -172 q 189 -306 280 -306 q 160 -303 176 -305 q 127 -296 144 -300 l 148 -216 q 165 -222 155 -220 q 189 -224 174 -224 q 259 -178 237 -224 q 302 58 282 -132 l 358 559 l 248 559 l 254 624 l 366 624 l 379 747 q 440 945 395 888 q 576 1003 485 1003 q 622 998 601 1003 q 663 983 643 994 l 648 911 q 608 923 626 919 q 576 926 591 926 q 503 893 526 926 q 467 742 480 860 l 454 624 l 586 624 l 582 559 l 447 559 z "},"≈":{"ha":1157,"x_min":121,"x_max":1038,"o":"m 1038 329 q 901 254 966 279 q 775 229 836 229 q 575 277 703 229 q 383 325 446 325 q 267 301 327 325 q 121 216 208 277 l 121 279 q 257 353 192 329 q 383 378 322 378 q 584 331 455 378 q 775 283 712 283 q 891 308 831 283 q 1038 392 951 332 l 1038 329 m 1038 549 q 902 475 966 499 q 775 450 837 450 q 575 497 703 450 q 383 545 446 545 q 267 520 327 545 q 121 436 208 496 l 121 498 q 258 574 193 549 q 383 599 323 599 q 584 551 455 599 q 775 503 712 503 q 889 527 830 503 q 1038 612 949 551 l 1038 549 z "},"∆":{"ha":905,"x_min":-8,"x_max":913,"o":"m 783 82 l 453 918 l 121 82 l 783 82 m 511 999 l 913 0 l -8 0 l 395 999 l 511 999 z "},"«":{"ha":530,"x_min":31,"x_max":500,"o":"m 444 33 l 272 296 l 439 564 l 497 528 l 354 294 l 500 69 l 444 33 m 201 33 l 31 296 l 196 564 l 254 528 l 113 294 l 257 69 l 201 33 z "},"»":{"ha":530,"x_min":31,"x_max":500,"o":"m 86 33 l 31 69 l 176 294 l 33 528 l 92 564 l 257 296 l 86 33 m 329 33 l 272 69 l 418 294 l 277 528 l 335 564 l 500 296 l 329 33 z "},"…":{"ha":1389,"x_min":163,"x_max":1227,"o":"m 163 57 q 183 106 163 86 q 232 126 203 126 q 281 106 261 126 q 301 57 301 86 q 281 8 301 28 q 232 -12 261 -12 q 183 8 203 -12 q 163 57 163 28 m 625 57 q 645 106 625 86 q 694 126 665 126 q 744 106 724 126 q 764 57 764 86 q 744 8 764 28 q 694 -12 724 -12 q 645 8 665 -12 q 625 57 625 28 m 1089 57 q 1109 106 1089 86 q 1158 126 1129 126 q 1207 106 1187 126 q 1227 57 1227 86 q 1207 8 1227 28 q 1158 -12 1187 -12 q 1109 8 1129 -12 q 1089 57 1089 28 z "}," ":{"ha":800,"x_min":0,"x_max":0,"o":""},"À":{"ha":829,"x_min":-12,"x_max":842,"o":"m 241 414 l 587 414 l 418 846 l 241 414 m -12 0 l 424 1032 l 842 0 l 743 0 l 616 336 l 211 336 l 79 0 l -12 0 m 505 1090 l 441 1090 l 250 1328 l 361 1328 l 505 1090 z "},"Ã":{"ha":829,"x_min":-12,"x_max":842,"o":"m 241 414 l 587 414 l 418 846 l 241 414 m -12 0 l 424 1032 l 842 0 l 743 0 l 616 336 l 211 336 l 79 0 l -12 0 m 612 1270 q 561 1177 595 1208 q 477 1145 527 1145 q 456 1146 467 1145 q 433 1152 445 1148 l 379 1170 q 361 1174 371 1173 q 340 1175 351 1175 q 303 1165 319 1175 q 277 1134 288 1155 l 218 1134 q 267 1224 233 1193 q 353 1255 301 1255 q 374 1253 364 1255 q 393 1249 385 1252 l 446 1231 q 467 1226 457 1227 q 487 1224 477 1224 q 528 1236 511 1224 q 553 1270 545 1247 l 612 1270 z "},"Õ":{"ha":1215,"x_min":77,"x_max":1139,"o":"m 607 54 q 774 87 695 54 q 916 182 852 119 q 1010 325 977 245 q 1043 494 1043 406 q 1010 664 1043 584 q 916 807 978 743 q 775 902 854 869 q 607 935 696 935 q 441 902 519 935 q 300 807 363 869 q 205 664 237 743 q 172 494 172 585 q 205 325 172 405 q 300 182 237 245 q 439 86 362 119 q 607 54 517 54 m 1139 494 q 1099 295 1139 389 q 983 126 1059 200 q 810 13 907 52 q 607 -26 714 -26 q 404 13 500 -26 q 232 126 308 52 q 116 295 156 201 q 77 494 77 389 q 116 695 77 601 q 232 865 156 790 q 402 977 307 939 q 607 1015 498 1015 q 813 977 717 1015 q 983 865 909 939 q 1099 695 1059 790 q 1139 494 1139 601 m 806 1270 q 754 1177 789 1208 q 671 1145 720 1145 q 649 1146 660 1145 q 627 1152 638 1148 l 572 1170 q 554 1174 564 1173 q 533 1175 545 1175 q 497 1165 512 1175 q 471 1134 481 1155 l 411 1134 q 460 1224 426 1193 q 546 1255 494 1255 q 568 1253 557 1255 q 586 1249 578 1252 l 639 1231 q 661 1226 650 1227 q 680 1224 671 1224 q 721 1236 705 1224 q 746 1270 738 1247 l 806 1270 z "},"Œ":{"ha":1573,"x_min":77,"x_max":1479,"o":"m 1479 993 l 1479 908 l 1089 908 l 1089 597 l 1479 597 l 1479 513 l 1089 513 l 1089 85 l 1479 85 l 1479 0 l 1006 0 l 1006 211 q 831 37 940 98 q 587 -24 723 -24 q 452 -6 518 -24 q 330 46 387 12 q 142 237 208 120 q 77 497 77 353 q 115 697 77 604 q 225 864 153 791 q 394 977 298 938 q 596 1017 489 1017 q 833 959 730 1017 q 1006 787 937 901 l 1006 993 l 1479 993 m 164 496 q 196 329 164 408 q 289 184 227 250 q 423 91 347 123 q 585 58 500 58 q 747 90 672 58 q 880 183 822 122 q 971 327 940 247 q 1003 496 1003 408 q 974 669 1003 591 q 886 807 945 747 q 750 902 826 870 q 585 935 673 935 q 425 902 500 935 q 289 808 349 870 q 196 664 227 743 q 164 496 164 585 z "},"œ":{"ha":1249,"x_min":62,"x_max":1190,"o":"m 389 52 q 556 123 488 52 q 625 298 625 195 q 557 475 625 404 q 389 546 488 546 q 221 475 290 546 q 153 298 153 404 q 221 123 153 195 q 389 52 290 52 m 714 370 l 1088 370 q 1033 499 1082 453 q 900 546 983 546 q 772 496 825 546 q 714 370 720 447 m 1186 300 l 708 300 q 763 120 708 188 q 907 52 819 52 q 1028 87 977 52 q 1111 196 1079 123 l 1190 153 q 1076 18 1143 62 q 917 -26 1008 -26 q 755 18 825 -26 q 661 135 686 62 q 550 16 623 58 q 386 -26 478 -26 q 261 -2 320 -26 q 157 68 203 22 q 86 174 111 115 q 62 300 62 233 q 87 424 62 365 q 157 529 111 484 q 261 600 202 574 q 382 625 321 625 q 550 585 479 625 q 661 467 621 545 q 755 583 689 541 q 908 625 821 625 q 1111 541 1035 625 q 1186 314 1186 456 l 1186 300 z "},"–":{"ha":694,"x_min":0,"x_max":694,"o":"m 0 326 l 694 326 l 694 272 l 0 272 l 0 326 z "},"—":{"ha":1389,"x_min":0,"x_max":1389,"o":"m 0 272 l 0 326 l 1389 326 l 1389 272 l 0 272 z "},"“":{"ha":595,"x_min":72,"x_max":524,"o":"m 524 994 l 392 628 l 290 673 l 468 1015 l 524 994 m 304 994 l 172 628 l 72 673 l 249 1015 l 304 994 z "},"”":{"ha":595,"x_min":72,"x_max":524,"o":"m 290 650 l 422 1015 l 524 971 l 346 628 l 290 650 m 72 650 l 203 1015 l 304 971 l 126 628 l 72 650 z "},"‘":{"ha":400,"x_min":83,"x_max":317,"o":"m 317 994 l 184 628 l 83 673 l 261 1015 l 317 994 z "},"’":{"ha":400,"x_min":83,"x_max":317,"o":"m 83 650 l 215 1015 l 317 971 l 139 628 l 83 650 z "},"÷":{"ha":1157,"x_min":172,"x_max":985,"o":"m 579 248 q 626 228 607 248 q 646 179 646 208 q 626 132 646 152 q 579 113 607 113 q 532 132 551 113 q 513 179 513 151 q 532 227 513 207 q 579 248 552 248 m 985 441 l 985 386 l 172 386 l 172 441 l 985 441 m 579 715 q 626 696 607 715 q 646 648 646 677 q 626 601 646 621 q 579 581 607 581 q 532 601 551 581 q 513 648 513 621 q 532 696 513 676 q 579 715 551 715 z "},"◊":{"ha":686,"x_min":4,"x_max":682,"o":"m 343 956 l 82 401 l 343 -158 l 604 401 l 343 956 m 343 1121 l 682 401 l 343 -323 l 4 401 l 343 1121 z "},"ÿ":{"ha":559,"x_min":29,"x_max":538,"o":"m 29 602 l 118 602 l 290 131 l 449 602 l 538 602 l 227 -302 l 140 -302 l 245 4 l 29 602 m 334 806 q 353 852 334 833 q 400 872 373 872 q 446 852 427 872 q 465 806 465 833 q 447 759 465 777 q 400 741 429 741 q 353 759 372 741 q 334 806 334 777 m 96 806 q 115 852 96 833 q 161 872 134 872 q 208 852 189 872 q 228 806 228 833 q 209 759 228 778 q 161 741 190 741 q 115 759 133 741 q 96 806 96 777 z "},"Ÿ":{"ha":758,"x_min":7,"x_max":753,"o":"m 336 0 l 336 457 l 7 993 l 115 993 l 382 538 l 650 993 l 753 993 l 427 457 l 427 0 l 336 0 m 432 1198 q 452 1244 432 1225 q 498 1264 471 1264 q 545 1244 526 1264 q 564 1198 564 1225 q 545 1151 564 1169 q 498 1133 527 1133 q 451 1151 470 1133 q 432 1198 432 1169 m 195 1198 q 214 1244 195 1225 q 260 1264 233 1264 q 307 1244 287 1264 q 326 1198 326 1225 q 307 1151 326 1170 q 260 1133 288 1133 q 213 1151 231 1133 q 195 1198 195 1168 z "},"∕":{"ha":232,"x_min":-232,"x_max":463,"o":"m -232 -26 l 390 1003 l 463 1003 l -158 -26 l -232 -26 z "},"¤":{"ha":842,"x_min":64,"x_max":779,"o":"m 647 602 q 582 760 647 694 q 422 825 516 825 q 263 760 329 825 q 197 602 197 694 q 263 442 197 508 q 422 376 329 376 q 581 442 515 376 q 647 602 647 508 m 243 817 q 328 865 283 849 q 421 880 372 880 q 515 864 470 880 q 600 817 559 848 l 739 957 l 779 917 l 639 778 q 685 693 669 739 q 701 600 701 648 q 686 506 701 551 q 639 422 670 462 l 779 283 l 739 243 l 600 383 q 515 337 561 353 q 421 321 470 321 q 327 336 371 321 q 243 383 283 352 l 103 243 l 64 283 l 204 422 q 158 506 174 461 q 142 600 142 551 q 158 693 142 648 q 204 778 174 739 l 64 917 l 103 957 l 243 817 z "},"‹":{"ha":286,"x_min":29,"x_max":257,"o":"m 200 35 l 29 296 l 195 564 l 253 529 l 111 294 l 257 69 l 200 35 z "},"›":{"ha":286,"x_min":29,"x_max":257,"o":"m 85 35 l 29 69 l 175 294 l 32 529 l 92 564 l 257 296 l 85 35 z "},"":{"ha":656,"x_min":18,"x_max":559,"o":"m 432 836 q 451 881 432 863 q 496 900 469 900 q 541 881 522 900 q 559 836 559 863 q 542 790 559 808 q 496 772 524 772 q 450 791 469 772 q 432 836 432 809 m 453 0 l 453 602 l 539 602 l 539 0 l 453 0 m 131 0 l 131 530 l 18 530 l 18 602 l 131 602 l 131 775 q 165 1010 131 956 q 289 1064 199 1064 q 332 1060 311 1064 q 370 1050 352 1057 l 354 977 q 322 989 338 985 q 294 993 307 993 q 232 958 250 993 q 214 829 214 923 l 214 602 l 346 602 l 346 530 l 214 530 l 214 0 l 131 0 z "},"":{"ha":663,"x_min":18,"x_max":545,"o":"m 460 0 l 460 1051 l 545 1051 l 545 0 l 460 0 m 131 0 l 131 530 l 18 530 l 18 602 l 131 602 l 131 775 q 165 1010 131 956 q 289 1064 199 1064 q 332 1060 311 1064 q 370 1050 352 1057 l 354 977 q 322 989 338 985 q 294 993 307 993 q 232 958 250 993 q 214 829 214 923 l 214 602 l 346 602 l 346 530 l 214 530 l 214 0 l 131 0 z "},"‡":{"ha":707,"x_min":68,"x_max":640,"o":"m 311 -302 l 311 26 l 68 26 l 68 103 l 311 103 l 311 591 l 68 591 l 68 668 l 311 668 l 311 993 l 395 993 l 395 668 l 640 668 l 640 591 l 395 591 l 395 103 l 640 103 l 640 26 l 395 26 l 395 -302 l 311 -302 z "},"·":{"ha":400,"x_min":131,"x_max":269,"o":"m 131 488 q 151 537 131 517 q 200 557 171 557 q 249 537 229 557 q 269 488 269 517 q 249 438 269 458 q 200 418 229 418 q 151 438 171 418 q 131 488 131 458 z "},"‚":{"ha":400,"x_min":82,"x_max":318,"o":"m 220 172 l 318 131 l 139 -218 l 82 -192 l 220 172 z "},"„":{"ha":595,"x_min":72,"x_max":524,"o":"m 290 -195 l 422 172 l 524 126 l 346 -216 l 290 -195 m 72 -195 l 203 172 l 304 126 l 126 -216 l 72 -195 z "},"‰":{"ha":1495,"x_min":41,"x_max":1453,"o":"m 1135 228 q 1165 85 1135 135 q 1254 36 1196 36 q 1341 85 1311 36 q 1372 228 1372 135 q 1342 370 1372 322 q 1254 418 1313 418 q 1166 369 1197 418 q 1135 228 1135 319 m 1453 227 q 1400 40 1453 106 q 1254 -26 1348 -26 q 1107 40 1160 -26 q 1054 227 1054 106 q 1107 414 1054 347 q 1254 481 1160 481 q 1400 414 1348 481 q 1453 227 1453 347 m 654 228 q 685 85 654 134 q 772 36 715 36 q 861 86 829 36 q 892 228 892 136 q 861 370 892 321 q 772 418 831 418 q 685 369 715 418 q 654 228 654 320 m 972 227 q 920 40 972 106 q 772 -26 867 -26 q 626 40 678 -26 q 574 227 574 106 q 626 414 574 347 q 772 481 678 481 q 920 414 867 481 q 972 227 972 347 m 122 750 q 152 607 122 656 q 240 558 182 558 q 329 608 298 558 q 359 750 359 658 q 329 892 359 844 q 240 940 299 940 q 153 891 183 940 q 122 750 122 842 m 440 749 q 387 562 440 629 q 240 494 334 494 q 94 561 146 494 q 41 749 41 628 q 94 936 41 869 q 240 1003 146 1003 q 387 936 334 1003 q 440 749 440 869 m 183 -26 l 753 1003 l 827 1003 l 256 -26 l 183 -26 z "},"Â":{"ha":829,"x_min":-12,"x_max":842,"o":"m 241 414 l 587 414 l 418 846 l 241 414 m -12 0 l 424 1032 l 842 0 l 743 0 l 616 336 l 211 336 l 79 0 l -12 0 m 220 1090 l 365 1328 l 464 1328 l 608 1090 l 546 1090 l 415 1260 l 283 1090 l 220 1090 z "},"Ê":{"ha":713,"x_min":123,"x_max":615,"o":"m 123 0 l 123 993 l 615 993 l 615 908 l 214 908 l 214 597 l 615 597 l 615 513 l 214 513 l 214 85 l 615 85 l 615 0 l 123 0 m 172 1090 l 317 1328 l 416 1328 l 560 1090 l 498 1090 l 367 1260 l 235 1090 l 172 1090 z "},"Á":{"ha":829,"x_min":-12,"x_max":842,"o":"m 241 414 l 587 414 l 418 846 l 241 414 m -12 0 l 424 1032 l 842 0 l 743 0 l 616 336 l 211 336 l 79 0 l -12 0 m 325 1090 l 469 1328 l 581 1328 l 389 1090 l 325 1090 z "},"Ë":{"ha":713,"x_min":123,"x_max":615,"o":"m 123 0 l 123 993 l 615 993 l 615 908 l 214 908 l 214 597 l 615 597 l 615 513 l 214 513 l 214 85 l 615 85 l 615 0 l 123 0 m 420 1198 q 439 1244 420 1225 q 486 1264 459 1264 q 532 1244 513 1264 q 551 1198 551 1225 q 533 1151 551 1169 q 486 1133 515 1133 q 439 1151 458 1133 q 420 1198 420 1169 m 182 1198 q 201 1244 182 1225 q 248 1264 220 1264 q 294 1244 275 1264 q 314 1198 314 1225 q 295 1151 314 1170 q 248 1133 276 1133 q 201 1151 219 1133 q 182 1198 182 1168 z "},"È":{"ha":713,"x_min":123,"x_max":615,"o":"m 123 0 l 123 993 l 615 993 l 615 908 l 214 908 l 214 597 l 615 597 l 615 513 l 214 513 l 214 85 l 615 85 l 615 0 l 123 0 m 457 1090 l 393 1090 l 201 1328 l 313 1328 l 457 1090 z "},"Í":{"ha":338,"x_min":79,"x_max":335,"o":"m 123 0 l 123 993 l 214 993 l 214 0 l 123 0 m 79 1090 l 224 1328 l 335 1328 l 143 1090 l 79 1090 z "},"Î":{"ha":338,"x_min":-25,"x_max":363,"o":"m 123 0 l 123 993 l 214 993 l 214 0 l 123 0 m -25 1090 l 119 1328 l 218 1328 l 363 1090 l 300 1090 l 170 1260 l 37 1090 l -25 1090 z "},"Ï":{"ha":338,"x_min":-15,"x_max":354,"o":"m 123 0 l 123 993 l 214 993 l 214 0 l 123 0 m 222 1198 q 242 1244 222 1225 q 289 1264 262 1264 q 335 1244 316 1264 q 354 1198 354 1225 q 336 1151 354 1169 q 289 1133 317 1133 q 241 1151 260 1133 q 222 1198 222 1169 m -15 1198 q 4 1244 -15 1225 q 50 1264 23 1264 q 97 1244 77 1264 q 117 1198 117 1225 q 98 1151 117 1170 q 50 1133 79 1133 q 3 1151 22 1133 q -15 1198 -15 1168 z "},"Ì":{"ha":338,"x_min":4,"x_max":260,"o":"m 123 0 l 123 993 l 214 993 l 214 0 l 123 0 m 260 1090 l 196 1090 l 4 1328 l 115 1328 l 260 1090 z "},"Ó":{"ha":1215,"x_min":77,"x_max":1139,"o":"m 607 54 q 774 87 695 54 q 916 182 852 119 q 1010 325 977 245 q 1043 494 1043 406 q 1010 664 1043 584 q 916 807 978 743 q 775 902 854 869 q 607 935 696 935 q 441 902 519 935 q 300 807 363 869 q 205 664 237 743 q 172 494 172 585 q 205 325 172 405 q 300 182 237 245 q 439 86 362 119 q 607 54 517 54 m 1139 494 q 1099 295 1139 389 q 983 126 1059 200 q 810 13 907 52 q 607 -26 714 -26 q 404 13 500 -26 q 232 126 308 52 q 116 295 156 201 q 77 494 77 389 q 116 695 77 601 q 232 865 156 790 q 402 977 307 939 q 607 1015 498 1015 q 813 977 717 1015 q 983 865 909 939 q 1099 695 1059 790 q 1139 494 1139 601 m 518 1090 l 663 1328 l 774 1328 l 582 1090 l 518 1090 z "},"Ô":{"ha":1215,"x_min":77,"x_max":1139,"o":"m 607 54 q 774 87 695 54 q 916 182 852 119 q 1010 325 977 245 q 1043 494 1043 406 q 1010 664 1043 584 q 916 807 978 743 q 775 902 854 869 q 607 935 696 935 q 441 902 519 935 q 300 807 363 869 q 205 664 237 743 q 172 494 172 585 q 205 325 172 405 q 300 182 237 245 q 439 86 362 119 q 607 54 517 54 m 1139 494 q 1099 295 1139 389 q 983 126 1059 200 q 810 13 907 52 q 607 -26 714 -26 q 404 13 500 -26 q 232 126 308 52 q 116 295 156 201 q 77 494 77 389 q 116 695 77 601 q 232 865 156 790 q 402 977 307 939 q 607 1015 498 1015 q 813 977 717 1015 q 983 865 909 939 q 1099 695 1059 790 q 1139 494 1139 601 m 414 1090 l 558 1328 l 657 1328 l 802 1090 l 739 1090 l 608 1260 l 476 1090 l 414 1090 z "},"":{"ha":1097,"x_min":77,"x_max":1021,"o":"m 567 825 q 566 834 566 829 q 566 850 566 840 q 630 1005 566 934 q 790 1095 694 1077 q 791 1079 791 1088 q 791 1053 791 1070 q 721 893 791 964 q 583 823 651 823 l 578 823 q 573 824 576 823 q 567 825 570 825 m 1021 273 q 882 41 943 106 q 743 -24 820 -24 q 654 -1 709 -24 q 571 21 599 21 q 482 -1 541 21 q 396 -24 424 -24 q 309 6 353 -24 q 221 96 265 36 q 114 296 152 191 q 77 500 77 401 q 161 742 77 648 q 380 835 246 835 q 486 812 427 835 q 570 789 545 789 q 652 812 593 789 q 755 836 711 836 q 890 809 830 836 q 999 725 949 782 q 896 626 930 681 q 863 503 863 572 q 903 367 863 426 q 1021 273 944 308 z "},"Ò":{"ha":1215,"x_min":77,"x_max":1139,"o":"m 607 54 q 774 87 695 54 q 916 182 852 119 q 1010 325 977 245 q 1043 494 1043 406 q 1010 664 1043 584 q 916 807 978 743 q 775 902 854 869 q 607 935 696 935 q 441 902 519 935 q 300 807 363 869 q 205 664 237 743 q 172 494 172 585 q 205 325 172 405 q 300 182 237 245 q 439 86 362 119 q 607 54 517 54 m 1139 494 q 1099 295 1139 389 q 983 126 1059 200 q 810 13 907 52 q 607 -26 714 -26 q 404 13 500 -26 q 232 126 308 52 q 116 295 156 201 q 77 494 77 389 q 116 695 77 601 q 232 865 156 790 q 402 977 307 939 q 607 1015 498 1015 q 813 977 717 1015 q 983 865 909 939 q 1099 695 1059 790 q 1139 494 1139 601 m 699 1090 l 635 1090 l 443 1328 l 554 1328 l 699 1090 z "},"Ú":{"ha":961,"x_min":119,"x_max":842,"o":"m 119 993 l 208 993 l 208 345 q 275 126 208 197 q 481 54 342 54 q 684 126 617 54 q 751 345 751 197 l 751 993 l 842 993 l 842 374 q 752 73 842 172 q 481 -26 663 -26 q 209 73 298 -26 q 119 374 119 172 l 119 993 m 391 1090 l 535 1328 l 646 1328 l 454 1090 l 391 1090 z "},"Û":{"ha":961,"x_min":119,"x_max":842,"o":"m 119 993 l 208 993 l 208 345 q 275 126 208 197 q 481 54 342 54 q 684 126 617 54 q 751 345 751 197 l 751 993 l 842 993 l 842 374 q 752 73 842 172 q 481 -26 663 -26 q 209 73 298 -26 q 119 374 119 172 l 119 993 m 286 1090 l 431 1328 l 530 1328 l 674 1090 l 612 1090 l 481 1260 l 349 1090 l 286 1090 z "},"Ù":{"ha":961,"x_min":119,"x_max":842,"o":"m 119 993 l 208 993 l 208 345 q 275 126 208 197 q 481 54 342 54 q 684 126 617 54 q 751 345 751 197 l 751 993 l 842 993 l 842 374 q 752 73 842 172 q 481 -26 663 -26 q 209 73 298 -26 q 119 374 119 172 l 119 993 m 571 1090 l 507 1090 l 315 1328 l 427 1328 l 571 1090 z "},"ı":{"ha":319,"x_min":117,"x_max":203,"o":"m 117 0 l 117 602 l 203 602 l 203 0 l 117 0 z "},"ˆ":{"ha":694,"x_min":153,"x_max":541,"o":"m 153 699 l 297 936 l 396 936 l 541 699 l 478 699 l 347 868 l 215 699 l 153 699 z "},"˜":{"ha":694,"x_min":150,"x_max":545,"o":"m 545 878 q 493 785 528 817 q 410 753 459 753 q 388 754 399 753 q 366 760 377 756 l 311 778 q 293 782 303 781 q 272 783 283 783 q 236 773 251 783 q 210 742 220 763 l 150 742 q 199 832 165 801 q 285 863 233 863 q 307 861 296 863 q 325 857 317 860 l 378 839 q 399 834 389 836 q 419 832 410 832 q 460 844 444 832 q 485 878 477 855 l 545 878 z "},"¯":{"ha":694,"x_min":172,"x_max":522,"o":"m 172 758 l 172 838 l 522 838 l 522 758 l 172 758 z "},"˘":{"ha":694,"x_min":161,"x_max":533,"o":"m 161 871 l 215 871 q 254 804 222 825 q 347 783 286 783 q 440 804 409 783 q 478 871 471 825 l 533 871 q 480 747 525 787 q 347 708 436 708 q 214 747 258 708 q 161 871 170 787 z "},"˙":{"ha":694,"x_min":278,"x_max":416,"o":"m 278 806 q 299 855 278 834 q 347 876 319 876 q 396 856 376 876 q 416 806 416 835 q 396 756 416 777 q 347 736 375 736 q 299 756 319 736 q 278 806 278 777 z "},"˚":{"ha":694,"x_min":179,"x_max":515,"o":"m 252 854 q 279 785 252 813 q 347 757 307 757 q 416 785 388 757 q 444 854 444 814 q 416 922 444 895 q 347 950 388 950 q 279 923 306 950 q 252 854 252 895 m 179 854 q 228 974 179 925 q 347 1022 277 1022 q 467 974 418 1022 q 515 854 515 925 q 467 735 515 783 q 347 686 418 686 q 228 735 277 686 q 179 854 179 783 z "},"¸":{"ha":694,"x_min":204,"x_max":514,"o":"m 204 -257 l 204 -210 q 302 -228 271 -223 q 357 -232 334 -232 q 420 -217 399 -232 q 441 -172 441 -202 q 418 -126 441 -141 q 346 -111 394 -111 q 332 -112 342 -111 q 318 -113 323 -113 l 318 0 l 359 0 l 359 -68 l 370 -68 q 477 -95 439 -68 q 514 -171 514 -121 q 477 -254 514 -227 q 368 -282 441 -282 q 294 -276 334 -282 q 204 -257 254 -270 z "},"˝":{"ha":694,"x_min":218,"x_max":612,"o":"m 393 699 l 507 936 l 612 936 l 450 699 l 393 699 m 218 699 l 318 936 l 425 936 l 275 699 l 218 699 z "},"˛":{"ha":694,"x_min":212,"x_max":416,"o":"m 389 0 q 315 -83 339 -44 q 292 -160 292 -123 q 307 -205 292 -191 q 359 -218 323 -218 l 416 -218 l 416 -294 l 363 -294 q 249 -267 286 -294 q 212 -183 212 -240 q 240 -98 212 -139 q 340 0 268 -58 l 389 0 z "},"ˇ":{"ha":694,"x_min":153,"x_max":541,"o":"m 541 936 l 396 699 l 297 699 l 153 936 l 215 936 l 347 766 l 478 936 l 541 936 z "},"Ł":{"ha":581,"x_min":-46,"x_max":561,"o":"m 131 0 l 131 456 l -1 364 l -46 418 l 131 543 l 131 993 l 221 993 l 221 591 l 382 704 l 425 646 l 221 504 l 221 85 l 561 85 l 561 0 l 131 0 z "},"ł":{"ha":339,"x_min":-14,"x_max":353,"o":"m 212 564 l 315 636 l 353 581 l 212 481 l 212 0 l 126 0 l 126 431 l 25 357 l -14 412 l 126 513 l 126 1051 l 212 1051 l 212 564 z "},"Š":{"ha":692,"x_min":47,"x_max":614,"o":"m 47 167 l 125 208 q 200 95 146 135 q 328 54 253 54 q 475 110 422 54 q 528 264 528 165 q 492 383 528 336 q 339 493 456 431 q 140 633 189 572 q 90 778 90 693 q 162 950 90 884 q 347 1017 233 1017 q 477 985 422 1017 q 567 890 532 954 l 497 848 q 436 913 475 891 q 342 936 396 936 q 225 893 269 936 q 182 777 182 850 q 354 582 182 672 q 401 557 385 566 q 571 425 528 487 q 614 264 614 363 q 536 52 614 130 q 323 -26 458 -26 q 156 22 226 -26 q 47 167 87 71 m 539 1328 l 395 1090 l 296 1090 l 151 1328 l 214 1328 l 346 1158 l 477 1328 l 539 1328 z "},"š":{"ha":530,"x_min":43,"x_max":472,"o":"m 43 107 l 122 153 q 179 77 142 102 q 271 52 216 52 q 355 78 323 52 q 386 150 386 105 q 263 267 386 219 q 243 275 250 272 q 110 352 148 313 q 72 450 72 392 q 126 576 72 527 q 267 625 180 625 q 391 593 340 625 q 467 503 443 562 l 390 460 q 342 525 376 503 q 261 547 309 547 q 190 522 218 547 q 161 458 161 496 q 189 397 161 421 q 304 343 217 372 q 438 268 404 309 q 472 155 472 227 q 413 23 472 73 q 254 -26 354 -26 q 122 8 178 -26 q 43 107 67 43 m 458 936 l 314 699 l 215 699 l 71 936 l 133 936 l 265 766 l 396 936 l 458 936 z "},"Ž":{"ha":778,"x_min":17,"x_max":761,"o":"m 17 0 l 607 911 l 103 911 l 103 993 l 761 993 l 174 83 l 701 83 l 701 0 l 17 0 m 582 1328 l 437 1090 l 338 1090 l 194 1328 l 256 1328 l 389 1158 l 519 1328 l 582 1328 z "},"ž":{"ha":529,"x_min":16,"x_max":505,"o":"m 16 0 l 351 526 l 39 526 l 39 602 l 496 602 l 163 75 l 505 75 l 505 0 l 16 0 m 458 936 l 314 699 l 215 699 l 71 936 l 133 936 l 265 766 l 396 936 l 458 936 z "},"¦":{"ha":694,"x_min":317,"x_max":378,"o":"m 378 277 l 378 -237 l 317 -237 l 317 277 l 378 277 m 378 971 l 378 457 l 317 457 l 317 971 l 378 971 z "},"Ð":{"ha":974,"x_min":0,"x_max":897,"o":"m 221 78 l 346 78 q 565 95 500 78 q 675 154 630 113 q 769 298 737 212 q 800 497 800 385 q 768 699 800 612 q 673 840 736 785 q 557 901 626 883 q 317 918 488 918 l 300 918 l 221 918 l 221 586 l 510 586 l 510 517 l 221 517 l 221 78 m 131 0 l 131 517 l 0 517 l 0 586 l 131 586 l 131 993 l 285 993 q 580 972 494 993 q 728 903 667 952 q 854 732 811 836 q 897 496 897 628 q 854 260 897 363 q 726 90 810 157 q 581 21 664 41 q 301 0 498 0 l 285 0 l 131 0 z "},"ð":{"ha":772,"x_min":57,"x_max":714,"o":"m 385 52 q 552 121 483 52 q 621 290 621 191 q 552 460 621 391 q 385 529 484 529 q 217 460 286 529 q 149 290 149 391 q 217 121 149 191 q 385 52 286 52 m 606 503 q 526 677 582 591 q 386 836 469 762 l 174 737 l 142 793 l 329 882 q 258 933 298 907 q 164 989 218 959 l 204 1050 q 323 977 273 1010 q 406 917 373 943 l 637 1025 l 672 968 l 464 868 q 651 610 589 743 q 714 336 714 477 q 624 72 714 171 q 385 -26 534 -26 q 260 -2 321 -26 q 151 68 199 23 q 81 168 105 112 q 57 288 57 224 q 81 408 57 351 q 151 509 106 465 q 256 577 197 553 q 372 602 314 602 q 492 577 434 602 q 606 503 549 553 z "},"Ý":{"ha":758,"x_min":7,"x_max":753,"o":"m 336 0 l 336 457 l 7 993 l 115 993 l 382 538 l 650 993 l 753 993 l 427 457 l 427 0 l 336 0 m 289 1090 l 433 1328 l 545 1328 l 353 1090 l 289 1090 z "},"ý":{"ha":559,"x_min":29,"x_max":538,"o":"m 29 602 l 118 602 l 290 131 l 449 602 l 538 602 l 227 -302 l 140 -302 l 245 4 l 29 602 m 191 699 l 335 936 l 446 936 l 254 699 l 191 699 z "},"Þ":{"ha":694,"x_min":123,"x_max":648,"o":"m 214 321 l 275 321 q 496 362 439 321 q 553 509 553 404 q 540 591 553 553 q 501 657 527 629 q 431 698 475 686 q 275 710 387 710 l 214 710 l 214 321 m 123 0 l 123 993 l 214 993 l 214 790 l 289 790 q 460 779 408 790 q 550 739 511 767 q 623 646 597 705 q 648 517 648 588 q 569 308 648 374 q 318 241 489 241 l 214 241 l 214 0 l 123 0 z "},"þ":{"ha":751,"x_min":111,"x_max":689,"o":"m 599 297 q 546 480 599 414 q 399 547 492 547 q 248 483 302 547 q 193 304 193 418 q 252 120 193 189 q 407 52 311 52 q 548 116 498 52 q 599 297 599 181 m 192 111 l 192 -302 l 111 -302 l 111 1051 l 192 1051 l 192 489 q 277 588 220 552 q 407 624 334 624 q 611 535 534 624 q 689 298 689 446 q 613 62 689 150 q 411 -26 538 -26 q 283 8 338 -26 q 192 111 227 43 z "},"−":{"ha":1157,"x_min":172,"x_max":985,"o":"m 985 441 l 985 386 l 172 386 l 172 441 l 985 441 z "},"×":{"ha":1157,"x_min":210,"x_max":949,"o":"m 579 453 l 909 783 l 949 745 l 618 414 l 949 83 l 909 45 l 579 375 l 249 45 l 210 83 l 541 414 l 210 745 l 249 783 l 579 453 z "},"¹":{"ha":528,"x_min":126,"x_max":301,"o":"m 244 390 l 244 932 l 126 932 l 154 981 l 301 981 l 301 390 l 244 390 z "},"²":{"ha":528,"x_min":32,"x_max":456,"o":"m 453 437 l 453 390 l 32 390 l 174 530 q 214 571 188 545 q 392 822 392 747 q 352 909 392 876 q 248 943 311 943 q 142 906 180 943 q 104 803 104 868 l 46 803 l 46 808 q 101 942 46 893 q 253 991 157 991 q 400 946 345 991 q 456 827 456 901 q 306 585 456 732 l 297 576 l 153 437 l 453 437 z "},"³":{"ha":528,"x_min":45,"x_max":460,"o":"m 109 541 q 149 452 113 482 q 252 422 184 422 q 358 456 319 422 q 397 549 397 490 q 358 642 397 608 q 250 676 319 676 q 234 676 239 676 q 225 675 229 675 l 225 726 q 240 726 230 726 q 254 725 250 725 q 352 754 317 725 q 387 833 387 783 q 352 914 387 884 q 258 945 317 945 q 174 919 206 945 q 135 849 141 894 l 71 848 q 129 953 78 915 q 258 991 179 991 q 396 949 343 991 q 449 838 449 907 q 419 751 449 787 q 335 700 389 715 q 427 642 395 681 q 460 549 460 602 q 404 422 460 469 q 252 375 347 375 q 104 418 157 375 q 45 541 51 460 l 109 541 z "},"¼":{"ha":1240,"x_min":119,"x_max":1165,"o":"m 1044 184 l 1044 435 l 847 184 l 1044 184 m 1044 0 l 1044 140 l 762 140 l 1101 570 l 1101 184 l 1165 184 l 1165 140 l 1101 140 l 1101 0 l 1044 0 m 272 -26 l 895 1003 l 966 1003 l 346 -26 l 272 -26 m 233 429 l 233 935 l 119 935 l 147 979 l 288 979 l 288 429 l 233 429 z "},"½":{"ha":1240,"x_min":119,"x_max":1171,"o":"m 1168 43 l 1168 0 l 766 0 l 901 132 q 937 166 913 144 q 1109 404 1109 332 q 1071 485 1109 454 q 971 517 1032 517 q 872 481 908 517 q 836 385 836 446 l 781 385 l 781 390 q 833 515 781 470 q 978 561 886 561 q 1118 519 1066 561 q 1171 407 1171 477 q 1023 177 1171 318 l 1019 174 l 882 43 l 1168 43 m 272 -26 l 895 1003 l 966 1003 l 346 -26 l 272 -26 m 233 429 l 233 935 l 119 935 l 147 979 l 288 979 l 288 429 l 233 429 z "},"¾":{"ha":1240,"x_min":41,"x_max":1165,"o":"m 1044 184 l 1044 435 l 847 184 l 1044 184 m 1044 0 l 1044 140 l 762 140 l 1101 570 l 1101 184 l 1165 184 l 1165 140 l 1101 140 l 1101 0 l 1044 0 m 272 -26 l 895 1003 l 966 1003 l 346 -26 l 272 -26 m 103 570 q 142 488 107 515 q 240 460 177 460 q 342 491 305 460 q 379 576 379 522 q 342 665 379 633 q 237 696 304 696 l 214 696 l 214 743 q 229 743 219 743 q 243 742 238 742 q 336 768 302 742 q 370 842 370 795 q 336 918 370 889 q 248 946 303 946 q 165 923 197 946 q 129 857 134 899 l 68 857 q 122 954 74 918 q 248 990 170 990 q 378 950 328 990 q 428 847 428 911 q 399 765 428 799 q 319 718 371 732 q 408 664 376 701 q 439 576 439 627 q 385 458 439 503 q 240 414 331 414 q 100 454 151 414 q 41 570 49 494 l 103 570 z "},"₣":{"ha":1133,"x_min":123,"x_max":1156,"o":"m 123 0 l 123 993 l 615 993 l 615 908 l 214 908 l 214 597 l 600 597 l 600 513 l 214 513 l 214 0 l 123 0 m 890 481 q 981 591 937 559 q 1084 624 1025 624 q 1120 621 1102 624 q 1156 611 1138 617 l 1128 532 q 1100 539 1115 536 q 1072 542 1086 542 q 944 471 997 542 q 890 296 890 401 l 890 0 l 807 0 l 807 602 l 890 602 l 890 481 z "},"Ğ":{"ha":1135,"x_min":77,"x_max":1068,"o":"m 937 743 q 789 885 877 837 q 590 933 701 933 q 290 808 406 933 q 174 485 174 684 q 204 317 174 396 q 294 178 235 239 q 428 87 354 117 q 590 57 502 57 q 862 155 757 57 q 969 412 966 254 l 627 412 l 627 490 l 1068 490 l 1068 479 q 939 108 1068 242 q 582 -26 809 -26 q 216 117 356 -26 q 77 494 77 261 q 112 697 77 602 q 214 863 147 792 q 376 977 286 939 q 578 1015 467 1015 q 837 961 729 1015 q 1003 800 945 906 l 937 743 m 382 1263 l 436 1263 q 475 1196 444 1217 q 568 1175 507 1175 q 661 1196 630 1175 q 699 1263 692 1217 l 754 1263 q 702 1139 746 1179 q 568 1100 657 1100 q 435 1139 479 1100 q 382 1263 391 1179 z "},"ğ":{"ha":751,"x_min":61,"x_max":640,"o":"m 640 602 l 640 104 q 634 -77 640 -14 q 612 -170 627 -139 q 517 -270 581 -237 q 354 -302 452 -302 q 167 -256 234 -302 q 86 -115 100 -210 l 191 -115 q 244 -199 201 -171 q 361 -228 287 -228 q 461 -208 416 -228 q 528 -154 505 -189 q 549 -102 543 -132 q 555 -11 555 -73 l 555 21 l 555 111 q 470 10 528 47 q 339 -26 413 -26 q 137 62 212 -26 q 61 298 61 150 q 138 535 61 446 q 343 624 216 624 q 472 587 414 624 q 555 489 530 550 l 555 602 l 640 602 m 353 547 q 205 480 259 547 q 151 297 151 414 q 202 116 151 181 q 345 52 254 52 q 499 120 441 52 q 557 304 557 189 q 503 483 557 418 q 353 547 448 547 m 191 871 l 244 871 q 283 804 252 825 q 376 783 315 783 q 469 804 438 783 q 507 871 500 825 l 562 871 q 510 747 554 787 q 376 708 465 708 q 243 747 288 708 q 191 871 199 787 z "},"İ":{"ha":338,"x_min":100,"x_max":239,"o":"m 123 0 l 123 993 l 214 993 l 214 0 l 123 0 m 100 1198 q 121 1247 100 1226 q 170 1268 142 1268 q 218 1247 198 1268 q 239 1198 239 1227 q 218 1148 239 1169 q 170 1128 197 1128 q 121 1148 142 1128 q 100 1198 100 1169 z "},"Ş":{"ha":692,"x_min":47,"x_max":614,"o":"m 47 167 l 125 208 q 200 95 146 135 q 328 54 253 54 q 475 110 422 54 q 528 264 528 165 q 492 383 528 336 q 339 493 456 431 q 140 633 189 572 q 90 778 90 693 q 162 950 90 884 q 347 1017 233 1017 q 477 985 422 1017 q 567 890 532 954 l 497 848 q 436 913 475 891 q 342 936 396 936 q 225 893 269 936 q 182 777 182 850 q 354 582 182 672 q 401 557 385 566 q 571 425 528 487 q 614 264 614 363 q 536 52 614 130 q 323 -26 458 -26 q 156 22 226 -26 q 47 167 87 71 m 203 -257 l 203 -210 q 301 -228 269 -223 q 355 -232 333 -232 q 419 -217 398 -232 q 440 -172 440 -202 q 416 -126 440 -141 q 345 -111 393 -111 q 331 -112 340 -111 q 317 -113 321 -113 l 317 0 l 358 0 l 358 -68 l 368 -68 q 475 -95 438 -68 q 513 -171 513 -121 q 476 -254 513 -227 q 367 -282 439 -282 q 293 -276 333 -282 q 203 -257 253 -270 z "},"ş":{"ha":530,"x_min":43,"x_max":472,"o":"m 43 107 l 122 153 q 179 77 142 102 q 271 52 216 52 q 355 78 323 52 q 386 150 386 105 q 263 267 386 219 q 243 275 250 272 q 110 352 148 313 q 72 450 72 392 q 126 576 72 527 q 267 625 180 625 q 391 593 340 625 q 467 503 443 562 l 390 460 q 342 525 376 503 q 261 547 309 547 q 190 522 218 547 q 161 458 161 496 q 189 397 161 421 q 304 343 217 372 q 438 268 404 309 q 472 155 472 227 q 413 23 472 73 q 254 -26 354 -26 q 122 8 178 -26 q 43 107 67 43 m 122 -257 l 122 -210 q 220 -228 189 -223 q 275 -232 252 -232 q 338 -217 317 -232 q 359 -172 359 -202 q 336 -126 359 -141 q 264 -111 312 -111 q 250 -112 260 -111 q 236 -113 241 -113 l 236 0 l 277 0 l 277 -68 l 288 -68 q 395 -95 357 -68 q 432 -171 432 -121 q 395 -254 432 -227 q 286 -282 359 -282 q 212 -276 252 -282 q 122 -257 172 -270 z "},"Ć":{"ha":993,"x_min":77,"x_max":922,"o":"m 921 811 q 770 905 847 875 q 607 936 692 936 q 294 814 414 936 q 174 496 174 692 q 203 319 174 397 q 293 179 233 240 q 430 88 353 119 q 595 57 507 57 q 762 86 680 57 q 916 172 843 115 l 916 66 q 761 -2 842 22 q 599 -26 679 -26 q 393 12 491 -26 q 224 121 294 51 q 114 288 151 193 q 77 496 77 382 q 115 703 77 607 q 225 869 153 800 q 394 977 295 938 q 599 1015 492 1015 q 775 989 694 1015 q 922 911 856 963 l 921 811 m 503 1090 l 647 1328 l 758 1328 l 566 1090 l 503 1090 z "},"ć":{"ha":633,"x_min":62,"x_max":589,"o":"m 579 492 q 490 535 537 521 q 392 550 442 550 q 214 478 280 550 q 147 288 147 407 q 216 113 147 182 q 392 45 285 45 q 491 62 441 45 q 589 113 541 79 l 589 21 q 491 -17 545 -4 q 376 -29 437 -29 q 151 61 239 -29 q 62 293 62 152 q 154 532 62 440 q 393 624 246 624 q 495 613 448 624 q 581 583 543 603 l 579 492 m 290 699 l 435 936 l 546 936 l 354 699 l 290 699 z "},"Č":{"ha":993,"x_min":77,"x_max":922,"o":"m 921 811 q 770 905 847 875 q 607 936 692 936 q 294 814 414 936 q 174 496 174 692 q 203 319 174 397 q 293 179 233 240 q 430 88 353 119 q 595 57 507 57 q 762 86 680 57 q 916 172 843 115 l 916 66 q 761 -2 842 22 q 599 -26 679 -26 q 393 12 491 -26 q 224 121 294 51 q 114 288 151 193 q 77 496 77 382 q 115 703 77 607 q 225 869 153 800 q 394 977 295 938 q 599 1015 492 1015 q 775 989 694 1015 q 922 911 856 963 l 921 811 m 786 1328 l 642 1090 l 543 1090 l 398 1328 l 460 1328 l 593 1158 l 724 1328 l 786 1328 z "},"č":{"ha":633,"x_min":62,"x_max":589,"o":"m 579 492 q 490 535 537 521 q 392 550 442 550 q 214 478 280 550 q 147 288 147 407 q 216 113 147 182 q 392 45 285 45 q 491 62 441 45 q 589 113 541 79 l 589 21 q 491 -17 545 -4 q 376 -29 437 -29 q 151 61 239 -29 q 62 293 62 152 q 154 532 62 440 q 393 624 246 624 q 495 613 448 624 q 581 583 543 603 l 579 492 m 574 936 l 429 699 l 330 699 l 186 936 l 248 936 l 380 766 l 511 936 l 574 936 z "},"đ":{"ha":757,"x_min":60,"x_max":757,"o":"m 153 294 q 205 115 153 178 q 355 52 258 52 q 504 120 450 52 q 558 310 558 189 q 504 484 558 420 q 357 547 450 547 q 208 479 263 547 q 153 294 153 412 m 557 0 l 557 110 q 474 8 528 43 q 347 -26 420 -26 q 139 62 218 -26 q 60 297 60 151 q 138 532 60 441 q 339 624 216 624 q 471 590 416 624 q 557 492 526 557 l 557 787 l 313 787 l 313 856 l 557 856 l 557 1051 l 642 1051 l 642 856 l 757 856 l 757 787 l 642 787 l 642 0 l 557 0 z "},"­":{"ha":482,"x_min":93,"x_max":389,"o":"m 93 343 l 389 343 l 389 256 l 93 256 l 93 343 z "},"∙":{"ha":400,"x_min":131,"x_max":269,"o":"m 131 488 q 151 537 131 517 q 200 557 171 557 q 249 537 229 557 q 269 488 269 517 q 249 438 269 458 q 200 418 229 418 q 151 438 171 418 q 131 488 131 458 z "}}}
